<svg width="12" height="12" viewBox="0 0 12 12" fill="none" xmlns="http://www.w3.org/2000/svg">
<path d="M10.0914 3.24453L1.59841 11.7376C1.42346 11.9125 1.20079 12 0.930417 12C0.660039 12 0.437375 11.9125 0.262425 11.7376C0.0874748 11.5626 0 11.34 0 11.0696C0 10.7992 0.0874748 10.5765 0.262425 10.4016L8.75546 1.90855H1.50298C1.2326 1.90855 1.00612 1.81694 0.823538 1.63372C0.640954 1.4505 0.549344 1.22402 0.548707 0.954274C0.548071 0.684533 0.639682 0.458052 0.823538 0.274831C1.0074 0.0916104 1.23388 0 1.50298 0H11.0457C11.3161 0 11.5429 0.0916104 11.7261 0.274831C11.9093 0.458052 12.0006 0.684533 12 0.954274V10.497C12 10.7674 11.9084 10.9942 11.7252 11.1774C11.5419 11.3606 11.3155 11.4519 11.0457 11.4513C10.776 11.4507 10.5495 11.359 10.3663 11.1765C10.1831 10.9939 10.0914 10.7674 10.0914 10.497V3.24453Z" fill="white"/>
</svg>
