<svg width="7" height="12" viewBox="0 0 7 12" fill="none" xmlns="http://www.w3.org/2000/svg">
<path d="M6.55 5.57502C6.55 5.70836 6.52933 5.83336 6.488 5.95002C6.44667 6.06669 6.37567 6.17502 6.275 6.27502L1.675 10.875C1.49167 11.0584 1.25833 11.15 0.974999 11.15C0.691666 11.15 0.458333 11.0584 0.275 10.875C0.0916663 10.6917 -3.02337e-08 10.4584 -4.26186e-08 10.175C-5.50035e-08 9.89169 0.0916662 9.65836 0.275 9.47502L4.175 5.57502L0.274999 1.67502C0.0916659 1.49169 -4.32378e-07 1.25836 -4.44763e-07 0.975024C-4.57148e-07 0.69169 0.0916658 0.458359 0.274999 0.275025C0.458332 0.091692 0.691666 2.38116e-05 0.974999 2.37992e-05C1.25833 2.37869e-05 1.49167 0.0916919 1.675 0.275025L6.275 4.87502C6.375 4.97502 6.446 5.08336 6.488 5.20002C6.53 5.31669 6.55067 5.44169 6.55 5.57502Z" fill="white"/>
</svg>
