<svg width="21" height="21" viewBox="0 0 21 21" fill="none" xmlns="http://www.w3.org/2000/svg">
<path d="M0.75 10.3333C0.75 15.6262 5.04046 19.9167 10.3333 19.9167C15.6262 19.9167 19.9167 15.6262 19.9167 10.3333C19.9167 5.04046 15.6262 0.75 10.3333 0.75C5.04046 0.75 0.75 5.04046 0.75 10.3333Z" stroke="#EA0029" stroke-width="1.5" stroke-linecap="round" stroke-linejoin="round"/>
<path d="M11.2917 0.797974C11.2917 0.797974 14.1667 4.58339 14.1667 10.3334C14.1667 16.0834 11.2917 19.8688 11.2917 19.8688M9.37501 19.8688C9.37501 19.8688 6.50001 16.0834 6.50001 10.3334C6.50001 4.58339 9.37501 0.797974 9.37501 0.797974M1.35376 13.6876H19.3129M1.35376 6.97922H19.3129" stroke="#EA0029" stroke-width="1.5" stroke-linecap="round" stroke-linejoin="round"/>
</svg>
