<svg width="154" height="24" viewBox="0 0 154 24" fill="none" xmlns="http://www.w3.org/2000/svg">
<g clip-path="url(#clip0_309_108)">
<path d="M0 20.8624L2.62177 18.5262C3.46035 19.5012 4.59773 20.3701 6.50623 20.3701C7.76892 20.3701 8.57858 19.8198 8.57858 18.8447C8.57858 16.2574 0.58797 17.2615 0.58797 11.2373C0.58797 8.09977 3.26757 6.21722 6.72792 6.21722C9.92802 6.21722 11.7112 7.89703 12.5209 9.22929L9.58102 11.4304C9.06052 10.7836 8.12556 9.80854 6.54478 9.80854C5.51343 9.80854 4.80015 10.3299 4.80015 11.1698C4.80015 13.8536 12.8197 12.5599 12.8197 18.6227C12.8197 21.9244 9.97622 24 6.32309 24C2.98805 24 0.92533 22.3202 0.0192777 20.8624" fill="#EA0029"/>
<path d="M26.8346 12.724L23.702 23.5752H18.7187L13.6776 6.64197H18.5259L21.5043 18.6516L24.7333 6.64197H28.9359L32.1456 18.6516L35.1529 6.64197H40.0013L34.9216 23.5752H29.9383L26.8346 12.724Z" fill="#EA0029"/>
<path d="M44.1652 0C45.6496 0 46.787 1.10056 46.787 2.55833C46.787 4.01609 45.6593 5.11665 44.1652 5.11665C42.6712 5.11665 41.582 4.01609 41.582 2.55833C41.582 1.10056 42.7098 0 44.1652 0ZM41.9676 6.64199H46.4304V23.5849H41.9676V6.64199Z" fill="#EA0029"/>
<path d="M48.8208 20.8624L51.4426 18.5262C52.2811 19.5012 53.4185 20.3701 55.327 20.3701C56.5897 20.3701 57.3994 19.8198 57.3994 18.8447C57.3994 16.2574 49.4088 17.2615 49.4088 11.2373C49.4088 8.09977 52.0884 6.21722 55.5487 6.21722C58.7488 6.21722 60.532 7.89703 61.3417 9.22929L58.4018 11.4304C57.8813 10.7836 56.9464 9.80854 55.3656 9.80854C54.3342 9.80854 53.621 10.3299 53.621 11.1698C53.621 13.8536 61.6405 12.5599 61.6405 18.6227C61.6405 21.9244 58.797 24 55.1439 24C51.8088 24 49.7461 22.3202 48.8401 20.8624" fill="#EA0029"/>
<path d="M62.8839 20.8624L65.5057 18.5262C66.3442 19.5012 67.4816 20.3701 69.3901 20.3701C70.6528 20.3701 71.4625 19.8198 71.4625 18.8447C71.4625 16.2574 63.4719 17.2615 63.4719 11.2373C63.4719 8.09977 66.1515 6.21722 69.6118 6.21722C72.8119 6.21722 74.5951 7.89703 75.4048 9.22929L72.4649 11.4304C71.9444 10.7836 71.0094 9.80854 69.4287 9.80854C68.3973 9.80854 67.684 10.3299 67.684 11.1698C67.684 13.8536 75.7036 12.5599 75.7036 18.6227C75.7036 21.9244 72.8601 24 69.207 24C65.8719 24 63.8092 22.3202 62.9032 20.8624" fill="#EA0029"/>
<path d="M84.9665 20.8624L87.5883 18.5262C88.4269 19.5012 89.5643 20.3701 91.4727 20.3701C92.7354 20.3701 93.5451 19.8198 93.5451 18.8447C93.5451 16.2574 85.5545 17.2615 85.5545 11.2373C85.5545 8.09977 88.2341 6.21722 91.6944 6.21722C94.8945 6.21722 96.6777 7.89703 97.4874 9.22929L94.5475 11.4304C94.027 10.7836 93.0921 9.80854 91.5113 9.80854C90.4799 9.80854 89.7667 10.3299 89.7667 11.1698C89.7667 13.8536 97.7862 12.5599 97.7862 18.6227C97.7862 21.9244 94.9427 24 91.2896 24C87.9546 24 85.8918 22.3202 84.9858 20.8624" fill="#EA0029"/>
<path d="M108.312 6.21722C113.488 6.21722 117.43 10.0402 117.43 15.1569C117.43 20.2735 113.613 24 108.312 24C103.01 24 99.2224 20.2735 99.2224 15.1569C99.2224 10.0402 103.165 6.21722 108.312 6.21722ZM108.312 20.0515C110.991 20.0515 112.967 18.0435 112.967 15.1569C112.967 12.2703 110.991 10.1657 108.312 10.1657C105.632 10.1657 103.685 12.2414 103.685 15.1569C103.685 18.0724 105.661 20.0515 108.312 20.0515Z" fill="#EA0029"/>
<path d="M124.447 0.164124H119.984V23.5849H124.447V0.164124Z" fill="#EA0029"/>
<path d="M133.566 12.7241C135.281 12.7241 136.602 13.2454 137.219 13.6605V12.5599C137.219 11.0732 136.12 10.0692 134.144 10.0692C132.467 10.0692 130.905 10.6195 129.652 11.2663L127.975 8.22527C129.498 7.19228 132.052 6.21722 134.636 6.21722C140.072 6.21722 141.682 9.06517 141.682 12.8592V23.5752H137.739L137.45 22.4747C136.573 23.4111 135.281 24 133.344 24C129.912 24 127.002 21.8954 127.002 18.3331C127.002 14.9928 129.623 12.7337 133.566 12.7337M134.404 20.5342C136.081 20.5342 137.315 19.6267 137.315 18.1979C137.315 16.7691 136.091 15.8327 134.375 15.8327C132.66 15.8327 131.464 16.8077 131.464 18.1979C131.464 19.5881 132.727 20.5342 134.404 20.5342Z" fill="#EA0029"/>
<path d="M154 10.7546C150.665 10.7546 149.441 12.8303 149.441 16.1995V23.5849H144.978V6.642H149.344V9.10379C150.087 7.42398 151.773 6.21722 154 6.21722V10.7546Z" fill="#EA0029"/>
</g>
<defs>
<clipPath id="clip0_309_108">
<rect width="154" height="24" fill="white"/>
</clipPath>
</defs>
</svg>
