<svg width="25" height="23" viewBox="0 0 25 23" fill="none" xmlns="http://www.w3.org/2000/svg">
<g clip-path="url(#clip0_200_1041)">
<path d="M23.9307 23C23.6527 23 23.3747 22.8929 23.1822 22.6785L12.5107 11.9823L1.81782 22.6785C1.3901 23.1072 0.727141 23.1072 0.299425 22.6785C-0.128291 22.2498 -0.128291 21.5853 0.299425 21.1566L11.7194 9.7102C12.1472 9.2815 12.8101 9.2815 13.2378 9.7102L24.6579 21.1566C25.0856 21.5853 25.0856 22.2498 24.6579 22.6785C24.444 22.8929 24.166 23 23.9093 23H23.9307Z" fill="#2FAC66"/>
<path opacity="0.5" d="M23.9307 13.5899C23.6527 13.5899 23.3747 13.4828 23.1822 13.2684L12.4893 2.59366L1.81782 13.2898C1.3901 13.7185 0.727141 13.7185 0.299425 13.2898C-0.128291 12.8611 -0.128291 12.1966 0.299425 11.7679L11.7408 0.321528C12.1685 -0.107176 12.8315 -0.107176 13.2592 0.321528L24.6792 11.7679C25.107 12.1966 25.107 12.8611 24.6792 13.2898C24.4654 13.5042 24.1874 13.6114 23.9307 13.6114V13.5899Z" fill="#2FAC66"/>
</g>
<defs>
<clipPath id="clip0_200_1041">
<rect width="25" height="23" fill="white"/>
</clipPath>
</defs>
</svg>
