<svg width="23" height="28" viewBox="0 0 23 28" fill="none" xmlns="http://www.w3.org/2000/svg">
<g clip-path="url(#clip0_485_661)">
<path d="M14.7 0.5H1.80001C1.10001 0.5 0.600006 1.1 0.600006 1.7V25.9C0.600006 26.6 1.20001 27.1 1.80001 27.1H20.6C21.3 27.1 21.8 26.5 21.8 25.9V7.3C21.8 6.9 21.6 6.5 21.4 6.3L15.7 0.9C15.4 0.7 15.1 0.5 14.7 0.5Z" stroke="white" stroke-linecap="round" stroke-linejoin="round"/>
<path d="M21.7 6.7002H17.2C16.1 6.7002 15.2 5.8002 15.2 4.7002V0.700195" stroke="white" stroke-linecap="round" stroke-linejoin="round"/>
<path d="M11.2 19.5002V8.2002" stroke="white" stroke-linecap="round" stroke-linejoin="round"/>
<path d="M15.3 15.4004L11.2 19.5004L7.10001 15.4004" stroke="white" stroke-linecap="round" stroke-linejoin="round"/>
<path d="M7.70001 19.5H14.7" stroke="white" stroke-linecap="round" stroke-linejoin="round"/>
</g>
<defs>
<clipPath id="clip0_485_661">
<rect width="22.3" height="27.7" fill="white"/>
</clipPath>
</defs>
</svg>
