<svg width="120" height="17" viewBox="0 0 120 17" fill="none" xmlns="http://www.w3.org/2000/svg">
<path d="M0 0.291504H6.77791C10.1726 0.291504 12.7591 2.49522 12.7591 5.59676C12.7591 8.69829 10.1842 10.902 6.77791 10.902H2.36707V16.5571H0V0.291504ZM6.44305 8.67497C8.76394 8.67497 10.3343 7.50898 10.3343 5.59676C10.3343 3.68453 8.76394 2.51854 6.44305 2.51854H2.36707V8.67497H6.44305Z" fill="white"/>
<path d="M6.77832 0.791504C9.96068 0.79168 12.2588 2.83181 12.2588 5.59717C12.2586 8.3629 9.9714 10.4017 6.77832 10.4019H1.86719V16.0571H0.5V0.791504H6.77832ZM1.86719 9.17529H6.44336C7.68136 9.17524 8.77194 8.86411 9.56543 8.24756C10.3719 7.62084 10.8339 6.70493 10.834 5.59717C10.834 4.48923 10.372 3.57259 9.56543 2.9458C8.77195 2.32928 7.68133 2.01812 6.44336 2.01807H1.86719V9.17529Z" stroke="white" stroke-opacity="0.1"/>
<path d="M29.3286 0.291504V16.5571H26.9615V9.38622H18.1629V16.5571H15.7958V0.291504H18.1629V7.15918H26.9615V0.291504H29.3286Z" fill="white"/>
<path d="M17.663 0.791504V7.65967H27.4619V0.791504H28.829V16.0571H27.4619V8.88623H17.663V16.0571H16.2958V0.791504H17.663Z" stroke="white" stroke-opacity="0.1"/>
<path d="M51.6714 0.291504H54.0385L63.299 12.6277V0.291504H65.666V16.5571H63.299L54.0385 4.22089V16.5571H51.6714V0.291504Z" fill="white"/>
<path d="M53.7886 0.791504L62.899 12.9282L63.7994 14.1265V0.791504H65.1656V16.0571H63.5484L54.438 3.92041L53.5386 2.72217V16.0571H52.1714V0.791504H53.7886Z" stroke="white" stroke-opacity="0.1"/>
<path d="M74.1182 2.51854H68.8414V0.291504H81.7852V2.51854H76.4853V16.5571H74.1182V2.51854Z" fill="white"/>
<path d="M81.2847 0.791504V2.01807H75.9849V16.0571H74.6177V2.01807H69.3414V0.791504H81.2847Z" stroke="white" stroke-opacity="0.1"/>
<path d="M83.4364 8.40678C83.4364 3.83611 87.2815 0 91.8078 0C96.3341 0 100.133 3.83611 100.133 8.40678C100.133 12.9775 96.3341 16.8369 91.8078 16.8369C87.2815 16.8369 83.4364 12.9775 83.4364 8.40678ZM97.7081 8.40678C97.7081 5.04873 95.0062 2.20372 91.7962 2.20372C88.5862 2.20372 85.8612 5.04873 85.8612 8.40678C85.8612 11.7648 88.5747 14.6332 91.7962 14.6332C95.0177 14.6332 97.7081 11.7882 97.7081 8.40678Z" fill="white"/>
<path d="M91.8075 0.5C96.0531 0.5 99.6327 4.10808 99.6327 8.40723C99.6324 12.708 96.0511 16.3369 91.8075 16.3369C87.5604 16.3368 83.9367 12.7043 83.9364 8.40723C83.9364 4.11176 87.5585 0.500146 91.8075 0.5ZM91.7958 1.7041C88.2894 1.70435 85.3612 4.79406 85.3612 8.40723C85.3614 12.0171 88.275 15.1326 91.7958 15.1328C95.318 15.1328 98.2077 12.0392 98.2079 8.40723C98.2079 4.79649 95.3048 1.7041 91.7958 1.7041Z" stroke="white" stroke-opacity="0.1"/>
<path d="M103.943 0.291504H106.31L111.957 10.9253L117.615 0.291504H119.982V16.5571H117.615V4.97878L111.968 15.6126L106.322 4.97878V16.5571H103.955V0.291504H103.943Z" fill="white"/>
<path d="M106.01 0.791504L111.516 11.1597L111.956 11.9907L112.398 11.1606L117.914 0.791504H119.481V16.0571H118.114V4.979L117.173 4.74463L111.968 14.5454L106.764 4.74463L105.822 4.979V16.0571H104.455V0.791504H106.01Z" stroke="white" stroke-opacity="0.1"/>
</svg>
