<svg width="52" height="76" viewBox="0 0 52 76" fill="none" xmlns="http://www.w3.org/2000/svg">
<g clip-path="url(#clip0_162_6650)">
<path d="M10.5213 64.8115C10.088 64.6213 9.75864 64.3619 9.51598 64.0334C9.27331 63.6875 9.13464 63.2898 9.13464 62.8229H10.7813C10.7986 63.1342 10.92 63.3763 11.1106 63.5665C11.3013 63.7567 11.5786 63.8432 11.9426 63.8432C12.3066 63.8432 12.584 63.7567 12.792 63.5838C13 63.4109 13.104 63.1861 13.104 62.9094C13.104 62.6846 13.0346 62.4944 12.896 62.356C12.7573 62.2177 12.584 62.0966 12.376 62.0102C12.168 61.9237 11.8733 61.8372 11.5093 61.7335C11.0066 61.5952 10.608 61.4395 10.296 61.3012C9.98398 61.1628 9.72398 60.938 9.49864 60.6614C9.27331 60.3847 9.16931 59.987 9.16931 59.5028C9.16931 59.0532 9.29064 58.6554 9.51598 58.3269C9.74131 57.9983 10.0533 57.739 10.4693 57.566C10.8853 57.3931 11.336 57.3066 11.8733 57.3066C12.6533 57.3066 13.2946 57.4969 13.7973 57.8773C14.3 58.2577 14.56 58.7938 14.612 59.4682H12.9306C12.9306 59.2088 12.8093 58.984 12.6013 58.8111C12.3933 58.6382 12.116 58.5517 11.7693 58.5517C11.4746 58.5517 11.232 58.6209 11.0586 58.7765C10.8853 58.9321 10.7986 59.1569 10.7986 59.4509C10.7986 59.6584 10.868 59.8313 11.0066 59.9524C11.1453 60.0907 11.3013 60.1945 11.5093 60.2809C11.7173 60.3674 11.9946 60.4539 12.3586 60.5749C12.8613 60.7132 13.26 60.8689 13.572 61.0072C13.884 61.1455 14.1613 61.3704 14.3866 61.6643C14.612 61.9583 14.7333 62.3387 14.7333 62.8056C14.7333 63.2206 14.6293 63.5838 14.4213 63.9469C14.2133 64.2928 13.9013 64.5694 13.4853 64.7769C13.0693 64.9845 12.584 65.0882 12.0293 65.0882C11.4746 65.0882 11.024 65.0017 10.5906 64.8115H10.5213Z" fill="white"/>
<path d="M26.156 57.3936L24.024 65.0195H22.2213L20.7826 59.5897L19.292 65.0195H17.5066L15.444 57.3936H17.0906L18.4426 63.3076L20.0026 57.3936H21.7013L23.1746 63.273L24.5266 57.3936H26.1733H26.156Z" fill="white"/>
<path d="M28.756 57.3936V65.0195H27.2307V57.3936H28.756Z" fill="white"/>
<path d="M31.668 64.8115C31.2347 64.6213 30.9054 64.3619 30.6627 64.0334C30.42 63.6875 30.2814 63.2898 30.2814 62.8229H31.928C31.9454 63.1342 32.0667 63.3763 32.2574 63.5665C32.448 63.7567 32.7254 63.8432 33.0894 63.8432C33.4534 63.8432 33.7307 63.7567 33.9387 63.5838C34.1467 63.4109 34.2507 63.1861 34.2507 62.9094C34.2507 62.6846 34.1814 62.4944 34.0427 62.356C33.904 62.2177 33.7307 62.0966 33.5227 62.0102C33.3147 61.9237 33.02 61.8372 32.656 61.7335C32.1534 61.5952 31.7547 61.4395 31.4427 61.3012C31.1307 61.1628 30.8707 60.938 30.6454 60.6614C30.42 60.3847 30.316 59.987 30.316 59.5028C30.316 59.0532 30.4374 58.6554 30.6627 58.3269C30.888 57.9983 31.2 57.739 31.616 57.566C32.032 57.3931 32.4827 57.3066 33.02 57.3066C33.8 57.3066 34.4414 57.4969 34.944 57.8773C35.4467 58.2577 35.7067 58.7938 35.7587 59.4682H34.0774C34.0774 59.2088 33.956 58.984 33.748 58.8111C33.54 58.6382 33.2627 58.5517 32.916 58.5517C32.6214 58.5517 32.3787 58.6209 32.2054 58.7765C32.032 58.9321 31.9454 59.1569 31.9454 59.4509C31.9454 59.6584 32.0147 59.8313 32.1534 59.9524C32.292 60.0907 32.448 60.1945 32.656 60.2809C32.864 60.3674 33.1414 60.4539 33.5054 60.5749C34.008 60.7132 34.4067 60.8689 34.7187 61.0072C35.0307 61.1455 35.308 61.3704 35.5334 61.6643C35.7587 61.9583 35.88 62.3387 35.88 62.8056C35.88 63.2206 35.776 63.5838 35.568 63.9469C35.36 64.2928 35.048 64.5694 34.632 64.7769C34.216 64.9845 33.7307 65.0882 33.176 65.0882C32.6214 65.0882 32.1707 65.0017 31.7374 64.8115H31.668Z" fill="white"/>
<path d="M38.4454 64.8115C38.0121 64.6213 37.6827 64.3619 37.4401 64.0334C37.1974 63.6875 37.0587 63.2898 37.0587 62.8229H38.7054C38.7227 63.1342 38.8441 63.3763 39.0347 63.5665C39.2254 63.7567 39.5027 63.8432 39.8667 63.8432C40.2307 63.8432 40.5081 63.7567 40.7161 63.5838C40.9241 63.4109 41.0281 63.1861 41.0281 62.9094C41.0281 62.6846 40.9587 62.4944 40.82 62.356C40.6814 62.2177 40.5081 62.0966 40.3001 62.0102C40.0921 61.9237 39.7974 61.8372 39.4334 61.7335C38.9307 61.5952 38.532 61.4395 38.22 61.3012C37.908 61.1628 37.6481 60.938 37.4227 60.6614C37.1974 60.3847 37.0934 59.987 37.0934 59.5028C37.0934 59.0532 37.2147 58.6554 37.4401 58.3269C37.6654 57.9983 37.9774 57.739 38.3934 57.566C38.8094 57.3931 39.26 57.3066 39.7974 57.3066C40.5774 57.3066 41.2187 57.4969 41.7214 57.8773C42.2241 58.2577 42.4841 58.7938 42.5361 59.4682H40.8547C40.8547 59.2088 40.7334 58.984 40.5254 58.8111C40.3174 58.6382 40.0401 58.5517 39.6934 58.5517C39.3987 58.5517 39.1561 58.6209 38.9827 58.7765C38.8094 58.9321 38.7227 59.1569 38.7227 59.4509C38.7227 59.6584 38.792 59.8313 38.9307 59.9524C39.0694 60.0907 39.2254 60.1945 39.4334 60.2809C39.6414 60.3674 39.9187 60.4539 40.2827 60.5749C40.7854 60.7132 41.1841 60.8689 41.4961 61.0072C41.8081 61.1455 42.0854 61.3704 42.3107 61.6643C42.5361 61.9583 42.6574 62.3387 42.6574 62.8056C42.6574 63.2206 42.5534 63.5838 42.3454 63.9469C42.1374 64.2928 41.8254 64.5694 41.4094 64.7769C40.9934 64.9845 40.508 65.0882 39.9534 65.0882C39.3987 65.0882 38.948 65.0017 38.5147 64.8115H38.4454Z" fill="white"/>
<path d="M5.408 71.815C5.21734 72.1782 4.90534 72.4549 4.50667 72.6797C4.09067 72.9045 3.57067 73.0082 2.94667 73.0082H1.664V75.9306H0.121338V68.3047H2.92934C3.51867 68.3047 4.02134 68.4084 4.43734 68.616C4.85334 68.8235 5.16534 69.1001 5.37334 69.4633C5.58134 69.8264 5.68534 70.2241 5.68534 70.6737C5.68534 71.0888 5.58134 71.4692 5.39067 71.815H5.408ZM3.81334 71.4692C4.02134 71.279 4.12534 71.0023 4.12534 70.6565C4.12534 69.9129 3.70934 69.5497 2.87734 69.5497H1.664V71.7632H2.87734C3.29334 71.7632 3.60534 71.6594 3.81334 71.4692Z" fill="white"/>
<path d="M10.764 75.9306L9.08268 72.9563H8.35468V75.9306H6.82935V68.3047H9.68935C10.2787 68.3047 10.7813 68.4084 11.1973 68.616C11.6133 68.8235 11.9253 69.1001 12.1333 69.4633C12.3413 69.8091 12.4453 70.2069 12.4453 70.6565C12.4453 71.1579 12.3067 71.6075 12.012 72.0226C11.7173 72.4203 11.284 72.697 10.712 72.8526L12.532 75.9479H10.764V75.9306ZM8.35468 71.815H9.63735C10.0533 71.815 10.3653 71.7113 10.5733 71.5211C10.7813 71.3136 10.8853 71.0369 10.8853 70.691C10.8853 70.3452 10.7813 70.0685 10.5733 69.8783C10.3653 69.6881 10.0533 69.5843 9.63735 69.5843H8.35468V71.815Z" fill="white"/>
<path d="M15.4267 75.4979C14.82 75.1693 14.352 74.7024 14.0054 74.1145C13.6587 73.5265 13.4854 72.8521 13.4854 72.1086C13.4854 71.365 13.6587 70.6906 14.0054 70.1026C14.352 69.5147 14.8374 69.0478 15.4267 68.7193C16.016 68.3907 16.6747 68.2178 17.4027 68.2178C18.1307 68.2178 18.7894 68.3907 19.3787 68.7193C19.968 69.0478 20.436 69.5147 20.7827 70.1026C21.1294 70.6906 21.3027 71.365 21.3027 72.1086C21.3027 72.8521 21.1294 73.5265 20.7827 74.1145C20.436 74.7024 19.968 75.1693 19.3614 75.4979C18.7547 75.8264 18.1134 75.9993 17.3854 75.9993C16.6574 75.9993 16.016 75.8264 15.4094 75.4979H15.4267ZM18.5987 74.322C18.9454 74.1145 19.2227 73.8205 19.4134 73.4401C19.604 73.0596 19.708 72.61 19.708 72.0913C19.708 71.5725 19.604 71.1402 19.4134 70.7597C19.2227 70.3793 18.9454 70.0853 18.5987 69.8778C18.252 69.6703 17.836 69.5666 17.3854 69.5666C16.9347 69.5666 16.5187 69.6703 16.172 69.8778C15.8254 70.0853 15.548 70.3793 15.34 70.7597C15.132 71.1402 15.0454 71.5898 15.0454 72.0913C15.0454 72.5927 15.1494 73.0423 15.34 73.4401C15.5307 73.8378 15.808 74.1145 16.172 74.322C16.5187 74.5295 16.9347 74.6332 17.3854 74.6332C17.836 74.6332 18.252 74.5295 18.5987 74.322Z" fill="white"/>
<path d="M27.4387 68.7713C28.0453 69.0826 28.5133 69.5322 28.8427 70.1028C29.172 70.6735 29.3453 71.3479 29.3453 72.1087C29.3453 72.8696 29.172 73.544 28.8427 74.1146C28.5133 74.6853 28.0453 75.1349 27.4387 75.4462C26.832 75.7574 26.1213 75.913 25.324 75.913H22.6547V68.2871H25.324C26.1213 68.2871 26.832 68.4427 27.4387 68.754V68.7713ZM27.144 73.9763C27.5773 73.544 27.8027 72.9215 27.8027 72.126C27.8027 71.3306 27.5773 70.708 27.144 70.2584C26.7107 69.8088 26.0867 69.584 25.2893 69.584H24.2147V74.6161H25.2893C26.0867 74.6161 26.7107 74.3913 27.144 73.959V73.9763Z" fill="white"/>
<path d="M32.2054 68.3047V73.0255C32.2054 73.5443 32.3441 73.942 32.6041 74.2187C32.8641 74.4954 33.2454 74.6337 33.7481 74.6337C34.2507 74.6337 34.6321 74.4954 34.8921 74.2187C35.1521 73.942 35.2907 73.5443 35.2907 73.0255V68.3047H36.8334V73.0082C36.8334 73.648 36.6947 74.2014 36.4174 74.651C36.1401 75.1006 35.7587 75.4291 35.2907 75.6539C34.8227 75.8787 34.3027 75.9998 33.7134 75.9998C33.1241 75.9998 32.6214 75.8787 32.1707 75.6539C31.7027 75.4291 31.3387 75.0833 31.0787 74.651C30.8014 74.2014 30.6801 73.648 30.6801 73.0082V68.3047H32.2054Z" fill="white"/>
<path d="M38.6533 70.086C39 69.4981 39.4506 69.0312 40.04 68.7027C40.6293 68.3741 41.288 68.2012 42.016 68.2012C42.8653 68.2012 43.6106 68.426 44.252 68.8583C44.8933 69.2906 45.344 69.8958 45.604 70.674H43.836C43.6626 70.3108 43.42 70.0342 43.0906 69.8612C42.7786 69.671 42.4146 69.5846 41.9986 69.5846C41.548 69.5846 41.1666 69.6883 40.82 69.8958C40.4733 70.1033 40.196 70.3973 40.0053 70.7777C39.8146 71.1582 39.7106 71.6078 39.7106 72.1093C39.7106 72.6107 39.8146 73.0603 40.0053 73.4408C40.196 73.8212 40.4733 74.1152 40.82 74.3227C41.1666 74.5302 41.5653 74.6339 41.9986 74.6339C42.4146 74.6339 42.7786 74.5475 43.0906 74.3573C43.4026 74.167 43.6626 73.8904 43.836 73.5272H45.604C45.344 74.3054 44.8933 74.9106 44.2693 75.3429C43.6453 75.7752 42.8826 76 42.016 76C41.288 76 40.6293 75.8271 40.04 75.4986C39.4506 75.17 38.9826 74.7031 38.6533 74.1152C38.324 73.5272 38.1506 72.8528 38.1506 72.1093C38.1506 71.3657 38.324 70.6913 38.6533 70.1033V70.086Z" fill="white"/>
<path d="M52 68.3047V69.5324H49.972V75.9133H48.4467V69.5324H46.4187V68.3047H52.0174H52Z" fill="white"/>
<path d="M51.7227 0H0V51.6005H51.7227V0Z" fill="#E3032E"/>
<path d="M42.0333 20.9582H30.7147V9.68359H21.008V20.9582H9.70667V30.642H21.008V41.9339H30.7147V30.642H42.0333V20.9582Z" fill="white"/>
</g>
<defs>
<clipPath id="clip0_162_6650">
<rect width="52" height="76" fill="white"/>
</clipPath>
</defs>
</svg>
