<svg width="93" height="147" viewBox="0 0 93 147" fill="none" xmlns="http://www.w3.org/2000/svg">
<g clip-path="url(#clip0_169_6671)">
<path d="M93 0H0V96.0449H93V0Z" fill="#E30427"/>
<path d="M19.6876 85.529V80.0074L15.1902 71.4385H17.8749L20.9726 77.4642L24.0474 71.4385H26.6403L22.2576 80.0074V85.529H19.6647H19.6876Z" fill="white"/>
<path d="M37.379 85.5285H28.6366V71.415H37.1725V73.7291H31.2524V77.1887H36.507V79.5028H31.2524V83.2144H37.379V85.5285Z" fill="white"/>
<path d="M46.6491 71.3691L51.399 85.5055H48.7831L47.7735 82.3666H42.886L41.9223 85.5055H39.3064L44.0562 71.3691H46.6491ZM43.6203 80.0755H47.0622L45.3183 74.5997L43.6203 80.0755Z" fill="white"/>
<path d="M53.3953 85.5285V71.415H59.3842C61.8394 71.415 63.3079 72.9043 63.3079 74.5081V77.5095C63.3079 78.6322 62.5507 79.7319 61.2198 80.2589L63.6062 85.5056H60.8756L58.6499 80.5567H56.057V85.5056H53.4412L53.3953 85.5285ZM56.034 73.752V78.2656H59.2006C60.0496 78.2656 60.738 77.7844 60.738 76.9596V75.0809C60.738 74.2102 60.0037 73.752 59.1088 73.752H56.057H56.034Z" fill="white"/>
<path d="M68.2184 81.3589V81.9317C68.2184 82.8482 68.9756 83.3293 69.9393 83.3293H71.5226C72.4863 83.3293 73.2665 82.894 73.2665 81.9546V81.4964C73.2665 79.9613 66.0844 79.5718 66.0844 75.631V74.348C66.0844 72.7671 67.4611 71.3008 69.7557 71.3008H71.5226C73.9778 71.3008 75.4463 72.79 75.4463 74.4167V76.0435H72.8534V74.9666C72.8534 74.0731 72.1192 73.5919 71.2243 73.5919H70.2147C69.3657 73.5919 68.6773 74.0502 68.6773 74.875V75.379C68.6773 77.189 75.8594 77.6243 75.8594 81.0152V82.4816C75.8594 84.177 74.322 85.5975 71.8209 85.5975H69.8016C67.2087 85.5975 65.6255 84.0625 65.6255 82.4128V81.3131H68.2184V81.3589Z" fill="white"/>
<path d="M1.03256 118.956V109.517H4.86454C6.42486 109.517 7.43449 110.479 7.43449 111.556V113.526C7.43449 114.603 6.47076 115.611 4.95632 115.611H2.547V118.956H1.03256ZM2.547 110.845V114.259H4.77275C5.41524 114.259 5.92005 113.824 5.92005 113.205V111.854C5.92005 111.212 5.36935 110.845 4.70392 110.845H2.56994H2.547Z" fill="white"/>
<path d="M9.22427 118.956V109.517H13.148C14.7313 109.517 15.718 110.479 15.718 111.556V113.549C15.718 114.305 15.1443 115.061 14.2035 115.405L15.8557 118.979H14.2724L12.6891 115.565H10.7387V118.979H9.22427V118.956ZM10.7387 110.845V114.191H13.0792C13.7217 114.191 14.2265 113.801 14.2265 113.205V111.854C14.2265 111.212 13.6758 110.845 13.0104 110.845H10.7617H10.7387Z" fill="white"/>
<path d="M20.1007 119.025C18.5174 119.025 17.5307 118.017 17.5307 116.917V111.533C17.5307 110.433 18.5174 109.425 20.1007 109.425H21.7528C23.2672 109.425 24.231 110.41 24.231 111.533V116.917C24.231 118.017 23.2672 119.025 21.7528 119.025H20.1007ZM21.5922 117.696C22.2347 117.696 22.7624 117.283 22.7624 116.619V111.853C22.7624 111.189 22.2576 110.777 21.5922 110.777H20.1925C19.5729 110.777 19.0452 111.189 19.0452 111.853V116.619C19.0452 117.283 19.5729 117.696 20.1925 117.696H21.5922Z" fill="white"/>
<path d="M26.1814 109.517H30.4264C31.9408 109.517 32.9045 110.502 32.9045 111.624V116.848C32.9045 117.948 31.9408 118.956 30.4264 118.956H26.1814V109.54V109.517ZM27.6729 110.845V117.604H30.2199C30.8623 117.604 31.3901 117.192 31.3901 116.528V111.922C31.3901 111.258 30.8853 110.845 30.2199 110.845H27.6729Z" fill="white"/>
<path d="M38.9623 119.024H37.3331C35.7728 119.024 34.7632 118.016 34.7632 116.916V109.493H36.2776V116.596C36.2776 117.26 36.7824 117.673 37.4249 117.673H38.7787C39.4212 117.673 39.926 117.26 39.926 116.596V109.493H41.4404V116.916C41.4404 118.016 40.4767 119.024 38.9393 119.024H38.9623Z" fill="white"/>
<path d="M49.8845 115.817V116.939C49.8845 118.039 48.9208 119.047 47.3834 119.047H45.8919C44.3087 119.047 43.322 118.039 43.322 116.939V111.555C43.322 110.455 44.3087 109.447 45.8919 109.447H47.3834C48.9208 109.447 49.8845 110.432 49.8845 111.555V112.632H48.3931V111.876C48.3931 111.211 47.8882 110.799 47.2228 110.799H45.9608C45.3412 110.799 44.8135 111.211 44.8135 111.876V116.641C44.8135 117.306 45.3412 117.718 45.9608 117.718H47.2228C47.8653 117.718 48.3931 117.306 48.3931 116.641V115.84H49.8845V115.817Z" fill="white"/>
<path d="M53.5559 118.956V110.868H51.1466V109.517H57.2961V110.868H55.0474V118.956H53.5559Z" fill="white"/>
<path d="M67.0481 109.471L70.2606 118.933H68.7461L67.9889 116.596H64.57L63.8357 118.933H62.3213L65.5337 109.471H67.0252H67.0481ZM65.0059 115.267H67.5529L66.2909 111.349L65.0289 115.267H65.0059Z" fill="white"/>
<path d="M71.775 118.956V109.517H73.2894L76.9837 116.184V109.517H78.4752V118.956H76.9608L73.2894 112.335V118.956H71.775Z" fill="white"/>
<path d="M80.5862 109.517H84.8313C86.3457 109.517 87.3094 110.502 87.3094 111.624V116.848C87.3094 117.948 86.3457 118.956 84.8313 118.956H80.5862V109.54V109.517ZM82.1007 110.845V117.604H84.6477C85.2902 117.604 85.8179 117.192 85.8179 116.528V111.922C85.8179 111.258 85.3131 110.845 84.6477 110.845H82.1007Z" fill="white"/>
<path d="M1.03256 132.978V123.538H4.86454C6.42486 123.538 7.43449 124.5 7.43449 125.577V127.548C7.43449 128.624 6.47076 129.633 4.95632 129.633H2.547V132.978H1.03256ZM2.547 124.89V128.304H4.77275C5.41524 128.304 5.92005 127.868 5.92005 127.25V125.898C5.92005 125.256 5.36935 124.89 4.70392 124.89H2.56994H2.547Z" fill="white"/>
<path d="M14.9608 132.978H9.22427V123.538H14.846V124.89H10.7387V127.479H14.433V128.831H10.7387V131.649H14.9837V132.978H14.9608Z" fill="white"/>
<path d="M16.9571 132.978V123.538H20.8808C22.4641 123.538 23.4508 124.5 23.4508 125.577V127.571C23.4508 128.327 22.8771 129.083 21.9363 129.426L23.5884 133.001H22.0052L20.4219 129.587H18.4715V133.001H16.9571V132.978ZM18.4715 124.89V128.235H20.812C21.4545 128.235 21.9593 127.845 21.9593 127.25V125.898C21.9593 125.256 21.4086 124.89 20.7431 124.89H18.4944H18.4715Z" fill="white"/>
<path d="M25.4241 132.978V123.538H31.0918V124.89H26.9386V127.708H30.8394V129.06H26.9386V133.001H25.4241V132.978Z" fill="white"/>
<path d="M35.3597 133.046C33.7765 133.046 32.7898 132.038 32.7898 130.938V125.554C32.7898 124.454 33.7765 123.446 35.3597 123.446H37.0119C38.5263 123.446 39.49 124.431 39.49 125.554V130.938C39.49 132.038 38.5263 133.046 37.0119 133.046H35.3597ZM36.8283 131.717C37.4708 131.717 37.9985 131.305 37.9985 130.64V125.875C37.9985 125.21 37.4937 124.798 36.8283 124.798H35.4286C34.809 124.798 34.2813 125.21 34.2813 125.875V130.64C34.2813 131.305 34.809 131.717 35.4286 131.717H36.8283Z" fill="white"/>
<path d="M41.4175 132.978V123.538H45.3412C46.9245 123.538 47.9112 124.5 47.9112 125.577V127.571C47.9112 128.327 47.3375 129.083 46.3968 129.426L48.0489 133.001H46.4656L44.8823 129.587H42.9319V133.001H41.4175V132.978ZM42.9319 124.89V128.235H45.2724C45.9149 128.235 46.4197 127.845 46.4197 127.25V125.898C46.4197 125.256 45.869 124.89 45.2036 124.89H42.9549H42.9319Z" fill="white"/>
<path d="M49.8845 132.978V123.538H51.4678L54.0836 129.289L56.6995 123.538H58.2139V132.978H56.7224V126.539L54.7032 130.961H53.4182L51.399 126.562V132.978H49.8845Z" fill="white"/>
<path d="M64.4323 123.516L67.6447 132.978H66.1303L65.3731 130.641H61.9541L61.2198 132.978H59.7054L62.9178 123.516H64.4093H64.4323ZM62.3901 129.289H64.9371L63.6751 125.371L62.413 129.289H62.3901Z" fill="white"/>
<path d="M69.1591 132.978V123.538H70.6736L74.3679 130.205V123.538H75.8594V132.978H74.3449L70.6736 126.356V132.978H69.1591Z" fill="white"/>
<path d="M84.3723 129.839V130.962C84.3723 132.062 83.4086 133.07 81.8712 133.07H80.3797C78.7965 133.07 77.8098 132.062 77.8098 130.962V125.578C77.8098 124.478 78.7965 123.47 80.3797 123.47H81.8712C83.4086 123.47 84.3723 124.455 84.3723 125.578V126.654H82.8808V125.898C82.8808 125.234 82.376 124.822 81.7106 124.822H80.4486C79.829 124.822 79.3013 125.234 79.3013 125.898V130.664C79.3013 131.328 79.829 131.741 80.4486 131.741H81.7106C82.3531 131.741 82.8808 131.328 82.8808 130.664V129.862H84.3723V129.839Z" fill="white"/>
<path d="M92.0363 132.978H86.2998V123.538H91.9215V124.89H87.8142V127.479H91.5085V128.831H87.8142V131.649H92.0592V132.978H92.0363Z" fill="white"/>
<path d="M3.12066 147L0.458923 137.583H2.0422L3.87787 144.823L5.75944 137.583H7.27388L9.15545 144.823L10.9911 137.583H12.5514L9.91266 147H8.39823L6.49371 140.287L4.61214 147H3.09771H3.12066Z" fill="white"/>
<path d="M18.242 137.537L21.4545 147H19.94L19.1828 144.663H15.7639L15.0296 147H13.5152L16.7276 137.537H18.2191H18.242ZM16.1998 143.334H18.7468L17.4848 139.416L16.2228 143.334H16.1998Z" fill="white"/>
<path d="M22.9689 147V137.561H26.8927C28.476 137.561 29.4626 138.523 29.4626 139.6V141.593C29.4626 142.349 28.889 143.105 27.9482 143.449L29.6003 147.023H28.017L26.4338 143.609H24.4834V147.023H22.9689V147ZM24.4834 138.912V142.257H26.8239C27.4663 142.257 27.9712 141.868 27.9712 141.272V139.92C27.9712 139.279 27.4204 138.912 26.755 138.912H24.5063H24.4834Z" fill="white"/>
<path d="M31.436 147V137.561H35.3597C36.943 137.561 37.9297 138.523 37.9297 139.6V141.593C37.9297 142.349 37.356 143.105 36.4152 143.449L38.0674 147.023H36.4841L34.9008 143.609H32.9504V147.023H31.436V147ZM32.9504 138.912V142.257H35.2909C35.9334 142.257 36.4382 141.868 36.4382 141.272V139.92C36.4382 139.279 35.8875 138.912 35.2221 138.912H32.9734H32.9504Z" fill="white"/>
<path d="M44.0562 137.537L47.2687 147H45.7542L44.997 144.663H41.5781L40.8438 147H39.3294L42.5418 137.537H44.0333H44.0562ZM42.037 143.334H44.584L43.322 139.416L42.0599 143.334H42.037Z" fill="white"/>
<path d="M48.8061 147V137.561H50.3205L54.0148 144.228V137.561H55.5063V147H53.9919L50.3205 140.379V147H48.8061Z" fill="white"/>
<path d="M59.3612 147V138.912H56.9519V137.561H63.1014V138.912H60.8527V147H59.3612Z" fill="white"/>
<path d="M67.0022 147V143.243L63.9504 137.561H65.5107L67.7594 141.799L69.9622 137.561H71.4767L68.5167 143.243V147H67.0252H67.0022Z" fill="white"/>
<path d="M31.2753 62.4564H24.8734C16.8882 62.4564 11.5648 57.1638 11.5648 51.2068V47.793H18.4027V49.8322C18.4027 53.75 21.4545 56.3619 25.2406 56.3619H30.5411C34.3272 56.3619 37.379 53.6126 37.379 49.4656V45.1811C37.379 41.2633 34.0289 38.6514 29.9674 38.6514H25.2406V32.6256H29.3938C32.8127 32.6256 35.6351 30.3116 35.6351 26.829V22.6821C35.6351 19.1995 32.9504 16.8855 29.6691 16.8855H26.1813C22.9918 16.8855 20.376 19.1995 20.376 22.6821V24.4921H13.5381V21.3761C13.5381 15.8545 18.4027 10.791 25.8142 10.791H30.4034C37.6084 10.791 42.473 15.8774 42.473 21.3761V27.9059C42.473 30.8156 40.9356 33.4963 38.3198 35.3063C41.9452 37.185 44.1251 40.4614 44.1251 43.8752V50.8403C44.1251 56.9347 39.0311 62.4564 31.2524 62.4564H31.2753Z" fill="white"/>
<path d="M62.1606 62.4564C54.1754 62.4564 48.852 57.1638 48.852 51.2068V22.0405C48.852 16.0836 54.1525 10.791 62.1606 10.791H68.5625C76.3412 10.791 81.4352 16.0836 81.4352 22.0405V51.2068C81.4352 57.1638 76.3412 62.4564 68.5625 62.4564H62.1606ZM67.8283 56.3619C71.6144 56.3619 74.6662 53.8188 74.6662 49.9009V23.3465C74.6662 19.4286 71.6144 16.8855 67.8283 16.8855H62.5278C58.7417 16.8855 55.6899 19.4286 55.6899 23.3465V49.9009C55.6899 53.8188 58.7417 56.3619 62.5278 56.3619H67.8283Z" fill="white"/>
</g>
<defs>
<clipPath id="clip0_169_6671">
<rect width="93" height="147" fill="white"/>
</clipPath>
</defs>
</svg>
