<svg width="23" height="96" viewBox="0 0 23 96" fill="none" xmlns="http://www.w3.org/2000/svg">
<path d="M4.74 95.29C1.95 95.29 0 93.19 0 90.39C0 87.59 1.95 85.5 4.74 85.5C6 85.5 7.1 85.93 7.91 86.65L8.61 86.07L9.93 87.7L9.11 88.39C9.34 88.99 9.48 89.67 9.48 90.38C9.48 93.18 7.53 95.28 4.75 95.28M7.33 89.85L6.31 90.69L4.99 89.06L6.03 88.19C5.65 88.01 5.21 87.9 4.73 87.9C3.23 87.9 2.08 88.87 2.08 90.38C2.08 91.89 3.23 92.88 4.73 92.88C6.23 92.88 7.38 91.89 7.38 90.38C7.38 90.2 7.37 90.02 7.33 89.84" fill="white"/>
<path d="M5.60002 83.96H0.150024V81.56H5.52002C6.60002 81.56 7.39002 80.9 7.39002 79.62C7.39002 78.34 6.61002 77.7 5.52002 77.7H0.150024V75.31H5.59002C7.87002 75.31 9.48002 76.68 9.48002 79.62C9.48002 82.56 7.86002 83.96 5.61002 83.96" fill="white"/>
<path d="M9.31003 67.43L7.99002 67.88V71.49L9.31003 71.94V74.62L0.150024 71.17V68.19L9.31003 64.74V67.42V67.43ZM2.49002 69.68L5.94002 70.85V68.53L2.49002 69.68Z" fill="white"/>
<path d="M9.31003 63.73H0.150024V61.37H7.25002V57.69H9.31003V63.73Z" fill="white"/>
<path d="M9.31003 54.03H0.150024V56.39H9.31003V54.03Z" fill="white"/>
<path d="M9.31003 50.22H2.21002V52.79H0.150024V45.31H2.21002V47.86H9.31003V50.22Z" fill="white"/>
<path d="M9.31003 41.05H5.61002L0.150024 44.52V41.86L3.53002 39.87L0.150024 37.91V35.23L5.61002 38.69H9.31003V41.05Z" fill="white"/>
<path d="M22.77 92.78H15.67V95.34H13.61V87.86H15.67V90.41H22.77V92.78Z" fill="white"/>
<path d="M22.77 86.6H13.61V79.89H15.67V84.24H17.1V79.98H19.16V84.24H20.71V79.89H22.77V86.6Z" fill="white"/>
<path d="M18.2 78.6C15.37 78.6 13.46 76.46 13.46 73.65C13.46 71.44 14.71 70.24 15.9 69.65L16.87 71.68C16.14 71.98 15.54 72.77 15.54 73.64C15.54 75.14 16.68 76.19 18.19 76.19C19.7 76.19 20.84 75.13 20.84 73.64C20.84 72.76 20.24 71.98 19.51 71.68L20.47 69.65C21.64 70.24 22.93 71.43 22.93 73.65C22.93 76.46 21.01 78.6 18.19 78.6" fill="white"/>
<path d="M22.77 62.1H19.09V65.9H22.77V68.26H13.61V65.9H17.03V62.1H13.61V59.74H22.77V62.1Z" fill="white"/>
<path d="M22.77 51.44L17.47 55.31H22.77V57.67H13.61V55.25L18.65 51.54H13.61V49.16H22.77V51.44Z" fill="white"/>
<path d="M18.2 47.61C15.41 47.61 13.46 45.51 13.46 42.71C13.46 39.91 15.41 37.82 18.2 37.82C20.99 37.82 22.94 39.91 22.94 42.71C22.94 45.51 20.99 47.61 18.2 47.61ZM18.2 40.22C16.7 40.22 15.55 41.2 15.55 42.71C15.55 44.22 16.7 45.21 18.2 45.21C19.7 45.21 20.85 44.22 20.85 42.71C20.85 41.2 19.68 40.22 18.2 40.22Z" fill="white"/>
<path d="M22.77 36.27H13.61V33.91H20.71V30.23H22.77V36.27Z" fill="white"/>
<path d="M18.2 29.44C15.41 29.44 13.46 27.34 13.46 24.54C13.46 21.74 15.41 19.65 18.2 19.65C20.99 19.65 22.94 21.73 22.94 24.54C22.94 27.35 20.99 29.44 18.2 29.44ZM18.2 22.05C16.7 22.05 15.55 23.03 15.55 24.54C15.55 26.05 16.7 27.04 18.2 27.04C19.7 27.04 20.85 26.05 20.85 24.54C20.85 23.03 19.68 22.05 18.2 22.05Z" fill="white"/>
<path d="M18.2 18.57C15.29 18.57 13.46 16.35 13.46 13.61C13.46 11.56 14.55 10.33 15.68 9.7L16.71 11.68C16.11 12.02 15.54 12.72 15.54 13.61C15.54 15.11 16.68 16.16 18.19 16.16C19.7 16.16 20.84 15.1 20.84 13.61C20.84 12.94 20.56 12.25 20.29 11.92H19.58V13.98H17.51V9.56H21.15C22.24 10.54 22.93 11.88 22.93 13.61C22.93 16.34 21.1 18.57 18.19 18.57" fill="white"/>
<path d="M22.77 5.82H19.08L13.61 9.29V6.63L16.99 4.64L13.61 2.68V0L19.08 3.46H22.77V5.82Z" fill="white"/>
</svg>
