<svg width="198" height="28" viewBox="0 0 198 28" fill="none" xmlns="http://www.w3.org/2000/svg">
<path d="M0 0.46405H11.1841C16.797 0.46405 21.0512 4.09205 21.0512 9.2071C21.0512 14.3222 16.797 17.9501 11.1841 17.9501H3.9092V27.2838H0V0.46405ZM10.6406 14.2905C14.4766 14.2905 17.0583 12.3816 17.0583 9.21764C17.0583 6.0537 14.4661 4.14478 10.6406 4.14478H3.9092V14.2905H10.6406Z" fill="white"/>
<path d="M48.4055 0.46405V27.2838H44.4962V15.4506H29.9883V27.2838H26.0791V0.46405H29.9883V11.791H44.4962V0.46405H48.4055Z" fill="white"/>
<path d="M85.2607 0.46405H89.1699L104.451 20.8082V0.46405H108.361V27.2838H104.451L89.1699 6.95015V27.2838H85.2607V0.46405Z" fill="white"/>
<path d="M122.304 4.13423H113.597V0.46405H134.951V4.13423H126.213V27.2838H122.304V4.13423Z" fill="white"/>
<path d="M137.679 13.8581C137.679 6.3279 144.023 0 151.497 0C158.97 0 165.231 6.3279 165.231 13.8581C165.231 21.3883 158.96 27.7584 151.497 27.7584C144.034 27.7584 137.679 21.3988 137.679 13.8581ZM161.238 13.8581C161.238 8.31064 156.786 3.628 151.486 3.628C146.187 3.628 141.703 8.31064 141.703 13.8581C141.703 19.4056 146.187 24.1304 151.486 24.1304C156.786 24.1304 161.238 19.4477 161.238 13.8581Z" fill="white"/>
<path d="M171.534 0.46405H175.443L184.767 17.9923L194.09 0.46405H198V27.2838H194.09V8.19463L184.767 25.7229L175.443 8.19463V27.2838H171.534V0.46405Z" fill="white"/>
<path d="M68.8712 0.46405H64.5439L53.1299 27.2838H57.4572L61.2932 18.2665H61.2828L62.3071 15.8725L62.328 15.8198L66.7076 5.54746L72.1219 18.2665L73.6271 21.8207L75.9475 27.2838H80.2852L68.8712 0.46405Z" fill="white"/>
</svg>
