<svg width="204" height="30" viewBox="0 0 204 30" fill="none" xmlns="http://www.w3.org/2000/svg">
<path d="M0 2.85746V0.24707H14.2078V2.85746H0ZM5.67532 17.6626V0.740576H8.53246V17.6626H5.67532Z" fill="white"/>
<path d="M23.2074 17.9218C21.9607 17.9218 20.8049 17.688 19.7269 17.2205C18.649 16.7529 17.701 16.1166 16.8958 15.2984C16.0906 14.4802 15.4542 13.5192 14.9867 12.4412C14.5321 11.3503 14.2984 10.1945 14.2984 8.94775C14.2984 7.70099 14.5321 6.54515 14.9867 5.46723C15.4412 4.38931 16.0776 3.44126 16.8828 2.62308C17.688 1.8049 18.623 1.16854 19.701 0.701006C20.7659 0.246461 21.9217 0.0126953 23.1685 0.0126953C24.4152 0.0126953 25.5711 0.246461 26.636 0.701006C27.7009 1.15555 28.649 1.79191 29.4542 2.62308C30.2724 3.44126 30.8957 4.4023 31.3633 5.48022C31.8178 6.57113 32.0516 7.72697 32.0516 8.97372C32.0516 10.2205 31.8178 11.3893 31.3633 12.4672C30.9087 13.5581 30.2724 14.5062 29.4672 15.3114C28.662 16.1296 27.7269 16.7659 26.649 17.2334C25.5841 17.701 24.4282 17.9347 23.2074 17.9347V17.9218ZM23.1555 15.1815C24.3373 15.1815 25.3633 14.9218 26.2594 14.3893C27.1425 13.8568 27.8438 13.1296 28.3503 12.1815C28.8568 11.2464 29.1035 10.1685 29.1035 8.93476C29.1035 8.02567 28.9607 7.1945 28.662 6.42827C28.3763 5.67502 27.9607 5.01269 27.4282 4.46723C26.8958 3.90879 26.2724 3.48022 25.5451 3.18152C24.8178 2.88282 24.0256 2.72698 23.1425 2.72698C21.9867 2.72698 20.9607 2.98672 20.0646 3.5062C19.1685 4.02568 18.4802 4.75295 17.9737 5.68801C17.4672 6.62307 17.2204 7.70099 17.2204 8.92177C17.2204 9.83086 17.3633 10.675 17.662 11.4542C17.9607 12.2335 18.3633 12.8828 18.8828 13.4283C19.4023 13.9737 20.0256 14.4023 20.7659 14.714C21.4932 15.0257 22.2984 15.1685 23.1555 15.1685V15.1815Z" fill="white"/>
<path d="M34.3375 17.6626V0.24707H37.1947V17.6626H34.3375ZM36.3115 11.1042V8.61069H40.6622C41.2596 8.61069 41.7921 8.49381 42.2466 8.24706C42.7011 8.01329 43.0648 7.66264 43.3245 7.22109C43.5843 6.77953 43.7271 6.26005 43.7271 5.66265C43.7271 5.06525 43.5973 4.54577 43.3245 4.10421C43.0648 3.66265 42.7011 3.32499 42.2466 3.07823C41.7921 2.84447 41.2596 2.7146 40.6622 2.7146H36.3115V0.24707H40.818C41.9089 0.24707 42.896 0.467849 43.7661 0.922394C44.6362 1.37694 45.3245 2.00031 45.831 2.8185C46.3375 3.63668 46.5843 4.58473 46.5843 5.67563C46.5843 6.76654 46.3375 7.72758 45.831 8.53277C45.3245 9.35095 44.6362 9.97433 43.7661 10.4289C42.896 10.8834 41.9089 11.1042 40.818 11.1042H36.3115Z" fill="white"/>
<path d="M56.5194 17.9221C55.2597 17.9221 54.0908 17.6883 53.0259 17.2337C51.961 16.7792 51.0259 16.1428 50.2207 15.3117C49.4155 14.4805 48.8051 13.5324 48.3766 12.4545C47.948 11.3636 47.7272 10.2078 47.7272 8.96103C47.7272 7.71427 47.948 6.54544 48.3766 5.46752C48.8051 4.37662 49.4155 3.42857 50.2207 2.62337C51.0259 1.81818 51.948 1.16883 53.0259 0.701298C54.0908 0.233766 55.2597 0 56.5194 0C57.935 0 59.1428 0.233766 60.1817 0.701298C61.2077 1.16883 62.1168 1.79221 62.922 2.5974L60.9869 4.53246C60.4674 3.97402 59.8441 3.53246 59.1038 3.20779C58.3635 2.88311 57.5064 2.74026 56.5324 2.74026C55.6752 2.74026 54.883 2.8961 54.1688 3.1948C53.4545 3.4935 52.8311 3.92207 52.3116 4.48051C51.7921 5.03895 51.3895 5.70129 51.1038 6.45454C50.8181 7.22077 50.6753 8.05194 50.6753 8.97401C50.6753 9.89609 50.8181 10.7273 51.1038 11.4935C51.3895 12.2597 51.7921 12.9221 52.3116 13.4675C52.8311 14.026 53.4545 14.4545 54.1688 14.7532C54.883 15.0519 55.6752 15.2078 56.5324 15.2078C57.5973 15.2078 58.4934 15.0519 59.2337 14.7273C59.9739 14.4026 60.5973 13.961 61.1168 13.3896L63.0519 15.3247C62.2596 16.1428 61.3246 16.7792 60.2467 17.2467C59.1687 17.7143 57.935 17.948 56.5454 17.948L56.5194 17.9221Z" fill="white"/>
<path d="M69.7273 17.9217C68.5715 17.9217 67.5066 17.649 66.5715 17.0905C65.6235 16.5321 64.8702 15.7789 64.3248 14.8438C63.7663 13.8957 63.4936 12.8438 63.4936 11.688C63.4936 10.5321 63.7663 9.48017 64.3248 8.55809C64.8832 7.62303 65.6364 6.88277 66.5715 6.32433C67.5196 5.76589 68.5715 5.49316 69.7273 5.49316C70.8832 5.49316 71.9611 5.76589 72.9092 6.31134C73.8572 6.8568 74.6105 7.59706 75.1559 8.54511C75.7144 9.48017 75.9871 10.5321 75.9871 11.688C75.9871 12.8438 75.7144 13.9087 75.1559 14.8438C74.5975 15.7919 73.8442 16.5451 72.9092 17.0905C71.9611 17.649 70.8962 17.9217 69.7273 17.9217ZM69.7273 15.2724C70.4027 15.2724 71.0131 15.1165 71.5325 14.8178C72.052 14.5061 72.4676 14.0906 72.7533 13.5321C73.039 12.9867 73.1949 12.3633 73.1949 11.662C73.1949 10.9607 73.052 10.3503 72.7403 9.81783C72.4416 9.28537 72.039 8.86978 71.5196 8.55809C71.0001 8.24641 70.4027 8.10355 69.7273 8.10355C69.052 8.10355 68.4676 8.25939 67.9481 8.55809C67.4287 8.86978 67.0131 9.28537 66.7274 9.81783C66.4416 10.3503 66.2858 10.9607 66.2858 11.662C66.2858 12.3633 66.4287 12.9867 66.7274 13.5321C67.0131 14.0776 67.4287 14.5061 67.9481 14.8178C68.4676 15.1295 69.065 15.2724 69.7273 15.2724Z" fill="white"/>
<path d="M77.5326 17.6623V5.72722H80.2728V17.6753H77.5326V17.6623ZM85.7274 17.6623V10.7662C85.7274 9.97397 85.4806 9.31163 84.9741 8.80514C84.4676 8.28566 83.8183 8.03891 83.0261 8.03891C82.4936 8.03891 82.0261 8.15579 81.6105 8.38956C81.1949 8.62332 80.8702 8.948 80.6365 9.36358C80.4027 9.77916 80.2858 10.2467 80.2858 10.7792L79.2209 10.1818C79.2209 9.27267 79.4157 8.45449 79.8183 7.75319C80.2209 7.0519 80.7664 6.49345 81.4677 6.09086C82.1689 5.68826 82.9612 5.48047 83.8443 5.48047C84.7274 5.48047 85.5326 5.71423 86.2339 6.16878C86.9352 6.62332 87.4806 7.20774 87.8702 7.93501C88.2728 8.66228 88.4676 9.40254 88.4676 10.1818V17.6753H85.7274V17.6623Z" fill="white"/>
<path d="M94.3764 17.6628L101.402 0.545898H102.766L109.714 17.6628H107.753L101.701 2.53291H102.428L96.3374 17.6628H94.4024H94.3764ZM97.5972 13.2082V11.5848H106.558V13.2082H97.5972Z" fill="white"/>
<path d="M111.896 17.6628V0.545898H113.714V17.6628H111.896ZM113.013 17.6628V15.9744H118.039C119.377 15.9744 120.571 15.6757 121.597 15.0913C122.623 14.5069 123.429 13.6887 124.013 12.6498C124.597 11.6108 124.883 10.429 124.883 9.07835C124.883 7.72771 124.597 6.54589 124.013 5.51992C123.429 4.49394 122.623 3.68875 121.597 3.09135C120.571 2.50693 119.377 2.20823 118.039 2.20823H113.065V0.545898H118.091C119.338 0.545898 120.481 0.75369 121.532 1.18226C122.584 1.61083 123.507 2.20823 124.299 2.97447C125.091 3.7407 125.701 4.64979 126.13 5.68875C126.558 6.72771 126.779 7.87056 126.779 9.10433C126.779 10.3381 126.558 11.442 126.13 12.4939C125.701 13.5329 125.091 14.442 124.312 15.2212C123.532 15.9874 122.61 16.5978 121.558 17.0264C120.507 17.455 119.364 17.6757 118.143 17.6757H113.013V17.6628Z" fill="white"/>
<path d="M134.078 17.6628L127.26 0.545898H129.247L135.143 15.6498H134.416L140.377 0.545898H142.312L135.442 17.6628H134.078Z" fill="white"/>
<path d="M141.428 17.6628L148.441 0.545898H149.805L156.753 17.6628H154.792L148.74 2.53291H149.467L143.376 17.6628H141.441H141.428ZM144.636 13.2082V11.5848H153.597V13.2082H144.636Z" fill="white"/>
<path d="M158.935 17.6628V0.545898H160.233L160.753 2.71473V17.6757H158.935V17.6628ZM170.779 17.6628L159.961 2.98745L160.233 0.545898L171.039 15.2212L170.792 17.6628H170.779ZM170.779 17.6628L170.233 15.5978V0.545898H172.078V17.6628H170.779Z" fill="white"/>
<path d="M183.545 17.9222C182.312 17.9222 181.182 17.7014 180.13 17.2469C179.078 16.8053 178.156 16.1689 177.377 15.3508C176.597 14.5326 176 13.5975 175.571 12.5326C175.143 11.4676 174.935 10.3118 174.935 9.09102C174.935 7.87024 175.143 6.7144 175.571 5.64947C176 4.58454 176.597 3.64947 177.364 2.84428C178.13 2.05207 179.039 1.4287 180.091 0.974152C181.13 0.532594 182.26 0.298828 183.481 0.298828C184.792 0.298828 185.961 0.532594 187 1.00013C188.039 1.46766 188.948 2.10402 189.727 2.9222L188.481 4.16895C187.883 3.50662 187.156 2.98714 186.312 2.61051C185.468 2.23389 184.519 2.05207 183.481 2.05207C182.519 2.05207 181.636 2.2209 180.831 2.57155C180.026 2.9222 179.325 3.41571 178.714 4.05207C178.104 4.68843 177.649 5.44168 177.325 6.28583C177 7.14297 176.844 8.07804 176.844 9.09102C176.844 10.104 177.013 11.0391 177.338 11.8962C177.675 12.7534 178.13 13.5066 178.727 14.143C179.325 14.7793 180.026 15.2728 180.844 15.6235C181.662 15.9741 182.545 16.143 183.506 16.143C184.597 16.143 185.571 15.9482 186.429 15.5715C187.286 15.1949 188.013 14.6624 188.61 14.0001L189.857 15.2728C189.091 16.091 188.182 16.7274 187.117 17.1949C186.052 17.6624 184.87 17.9092 183.558 17.9092L183.545 17.9222Z" fill="white"/>
<path d="M192.065 17.6628V0.545898H193.883V17.6628H192.065ZM193.26 2.22122V0.545898H203.182V2.20823H193.26V2.22122ZM193.26 9.70173V8.07835H202.545V9.70173H193.26ZM193.26 17.6628V16.0004H203.338V17.6628H193.26Z" fill="white"/>
<path d="M126.714 24.065V23.0391H132.298V24.065H126.714ZM128.935 29.8832V23.2209H130.065V29.8832H128.935Z" fill="#9D9D9C"/>
<path d="M134.298 29.8835V23.0264H135.428V29.8835H134.298ZM135.077 24.0653V23.0394H138.869V24.0653H135.077ZM135.077 26.8835V25.8965H138.584V26.8835H135.077ZM135.077 29.8835V28.8575H138.921V29.8835H135.077Z" fill="#9D9D9C"/>
<path d="M144.207 29.9875C143.714 29.9875 143.246 29.8966 142.83 29.7148C142.415 29.5329 142.038 29.2862 141.727 28.9615C141.415 28.6368 141.168 28.2602 140.999 27.8316C140.83 27.4031 140.74 26.9485 140.74 26.455C140.74 25.9615 140.83 25.507 140.999 25.0784C141.168 24.6498 141.415 24.2732 141.727 23.9615C142.038 23.6368 142.402 23.3901 142.83 23.2083C143.246 23.0265 143.714 22.9355 144.207 22.9355C144.766 22.9355 145.246 23.0265 145.649 23.2083C146.051 23.3901 146.415 23.6368 146.727 23.9485L145.96 24.7148C145.753 24.494 145.506 24.3252 145.22 24.1953C144.934 24.0654 144.597 24.0135 144.207 24.0135C143.869 24.0135 143.558 24.0784 143.272 24.1953C142.986 24.3122 142.753 24.481 142.545 24.7018C142.337 24.9226 142.181 25.1823 142.064 25.481C141.947 25.7797 141.895 26.1174 141.895 26.468C141.895 26.8187 141.947 27.1563 142.064 27.455C142.181 27.7537 142.337 28.0135 142.545 28.2342C142.753 28.455 142.999 28.6238 143.272 28.7407C143.558 28.8576 143.856 28.9226 144.207 28.9226C144.623 28.9226 144.973 28.8576 145.272 28.7277C145.571 28.5979 145.804 28.429 146.012 28.2083L146.779 28.9745C146.467 29.2992 146.09 29.5459 145.675 29.7277C145.246 29.9096 144.766 30.0005 144.22 30.0005L144.207 29.9875Z" fill="#9D9D9C"/>
<path d="M148.818 29.8835V23.0264H149.948V29.8835H148.818ZM149.584 26.8575V25.8316H153.415V26.8575H149.584ZM153.168 29.8835V23.0264H154.298V29.8835H153.168Z" fill="#9D9D9C"/>
<path d="M156.96 29.8835V23.0264H157.74L158.077 24.3251V29.8835H156.947H156.96ZM161.701 29.8835L157.597 24.5329L157.74 23.0394L161.843 28.39L161.701 29.8835ZM161.701 29.8835L161.363 28.6757V23.0264H162.493V29.8835H161.714H161.701Z" fill="#9D9D9C"/>
<path d="M168.285 29.9875C167.791 29.9875 167.337 29.8966 166.908 29.7148C166.48 29.5329 166.116 29.2732 165.791 28.9615C165.467 28.6368 165.22 28.2602 165.038 27.8316C164.856 27.4031 164.766 26.9485 164.766 26.455C164.766 25.9615 164.856 25.507 165.038 25.0784C165.22 24.6498 165.467 24.2862 165.778 23.9615C166.09 23.6368 166.467 23.3901 166.882 23.2083C167.298 23.0265 167.753 22.9355 168.246 22.9355C168.74 22.9355 169.194 23.0265 169.61 23.2083C170.025 23.3901 170.402 23.6368 170.727 23.9615C171.051 24.2862 171.298 24.6628 171.48 25.0914C171.662 25.52 171.753 25.9745 171.753 26.468C171.753 26.9615 171.662 27.4161 171.48 27.8446C171.298 28.2732 171.051 28.6498 170.74 28.9615C170.428 29.2862 170.051 29.5329 169.636 29.7148C169.22 29.8966 168.765 29.9875 168.285 29.9875ZM168.272 28.9096C168.74 28.9096 169.142 28.8057 169.493 28.5979C169.843 28.3901 170.116 28.1044 170.311 27.7277C170.506 27.3511 170.61 26.9355 170.61 26.455C170.61 26.0914 170.558 25.7667 170.441 25.468C170.324 25.1693 170.168 24.9096 169.96 24.6888C169.752 24.468 169.506 24.2992 169.22 24.1823C168.934 24.0654 168.623 24.0005 168.272 24.0005C167.817 24.0005 167.415 24.1044 167.064 24.3122C166.714 24.52 166.441 24.8057 166.246 25.1693C166.051 25.5329 165.947 25.9615 165.947 26.442C165.947 26.8057 165.999 27.1303 166.116 27.442C166.233 27.7407 166.389 28.0005 166.597 28.2213C166.804 28.442 167.051 28.6109 167.337 28.7277C167.623 28.8446 167.934 28.9096 168.272 28.9096Z" fill="#9D9D9C"/>
<path d="M174.052 29.8835V23.0264H175.182V29.8835H174.052ZM174.831 29.8835V28.8575H178.415V29.8835H174.831Z" fill="#9D9D9C"/>
<path d="M183.376 29.9875C182.882 29.9875 182.428 29.8966 181.999 29.7148C181.571 29.5329 181.207 29.2732 180.883 28.9615C180.558 28.6368 180.311 28.2602 180.129 27.8316C179.947 27.4031 179.857 26.9485 179.857 26.455C179.857 25.9615 179.947 25.507 180.129 25.0784C180.311 24.6498 180.558 24.2862 180.87 23.9615C181.181 23.6368 181.558 23.3901 181.973 23.2083C182.389 23.0265 182.844 22.9355 183.337 22.9355C183.831 22.9355 184.285 23.0265 184.701 23.2083C185.116 23.3901 185.493 23.6368 185.818 23.9615C186.142 24.2862 186.389 24.6628 186.571 25.0914C186.753 25.52 186.844 25.9745 186.844 26.468C186.844 26.9615 186.753 27.4161 186.571 27.8446C186.389 28.2732 186.142 28.6498 185.831 28.9615C185.519 29.2862 185.142 29.5329 184.727 29.7148C184.311 29.8966 183.857 29.9875 183.376 29.9875ZM183.363 28.9096C183.831 28.9096 184.233 28.8057 184.584 28.5979C184.934 28.3901 185.207 28.1044 185.402 27.7277C185.597 27.3511 185.701 26.9355 185.701 26.455C185.701 26.0914 185.649 25.7667 185.532 25.468C185.415 25.1693 185.259 24.9096 185.051 24.6888C184.844 24.468 184.597 24.2992 184.311 24.1823C184.025 24.0654 183.714 24.0005 183.363 24.0005C182.908 24.0005 182.506 24.1044 182.155 24.3122C181.805 24.52 181.532 24.8057 181.337 25.1693C181.142 25.5329 181.038 25.9615 181.038 26.442C181.038 26.8057 181.09 27.1303 181.207 27.442C181.324 27.7407 181.48 28.0005 181.688 28.2213C181.895 28.442 182.142 28.6109 182.428 28.7277C182.714 28.8446 183.025 28.9096 183.363 28.9096Z" fill="#9D9D9C"/>
<path d="M192.207 29.9875C191.739 29.9875 191.298 29.8966 190.869 29.7148C190.454 29.5329 190.09 29.2732 189.778 28.9615C189.467 28.6368 189.22 28.2602 189.038 27.8316C188.856 27.4031 188.765 26.9485 188.765 26.455C188.765 25.9615 188.856 25.507 189.038 25.0784C189.22 24.6498 189.467 24.2862 189.778 23.9615C190.09 23.6368 190.467 23.3901 190.895 23.2083C191.324 23.0265 191.778 22.9355 192.285 22.9355C192.83 22.9355 193.324 23.0394 193.791 23.2472C194.259 23.455 194.649 23.7537 194.96 24.1433L194.194 24.9096C193.986 24.6239 193.726 24.4031 193.376 24.2472C193.038 24.0914 192.675 24.0135 192.285 24.0135C191.817 24.0135 191.402 24.1174 191.051 24.3252C190.7 24.5329 190.415 24.8187 190.22 25.1823C190.025 25.5459 189.921 25.9745 189.921 26.455C189.921 26.9355 190.025 27.3641 190.22 27.7277C190.415 28.0914 190.688 28.3901 191.025 28.5979C191.363 28.8057 191.752 28.9096 192.181 28.9096C192.636 28.9096 193.025 28.8316 193.363 28.6628C193.688 28.494 193.947 28.2472 194.116 27.9226C194.298 27.5979 194.376 27.1823 194.376 26.7018L195.077 27.2083H192.155V26.1823H195.545V26.3381C195.545 27.1563 195.402 27.8316 195.103 28.3771C194.804 28.9226 194.415 29.3251 193.908 29.5849C193.402 29.8446 192.83 29.9875 192.181 29.9875H192.207Z" fill="#9D9D9C"/>
<path d="M199.454 27.1432L196.779 23.0264H198.078L200.169 26.3121H199.558L201.649 23.0264H202.935L200.246 27.1432H199.467H199.454ZM199.298 29.8835V26.4419H200.428V29.8835H199.298Z" fill="#9D9D9C"/>
</svg>
