<svg width="138" height="23" viewBox="0 0 138 23" fill="none" xmlns="http://www.w3.org/2000/svg">
<path d="M-7.24196e-06 13.08H2.66399V13.848C2.66399 15.024 3.69599 15.768 5.01599 15.768H6.88799C8.23199 15.768 9.26399 15.144 9.26399 13.92V13.2C9.26399 11.208 0.527993 10.728 0.527993 6.096V4.56C0.527993 2.736 2.15999 1.056 4.77599 1.056H6.88799C9.69599 1.056 11.448 2.784 11.448 4.704V6.552H8.78399V5.28C8.78399 4.128 7.79999 3.432 6.59999 3.432H5.20799C4.10399 3.432 3.21599 4.08 3.21599 5.136V5.88C3.21599 8.352 11.928 8.832 11.928 12.792V14.496C11.928 16.536 10.104 18.144 7.19999 18.144H4.84799C1.87199 18.144 -7.24196e-06 16.368 -7.24196e-06 14.4V13.08ZM14.5061 4.8H17.0741V14.04C17.0741 15.24 17.9141 15.864 18.9461 15.864H19.4981C20.2901 15.864 21.1061 15.48 21.6581 14.856V4.8H24.2501V18H22.4741L22.1381 16.848C21.2501 17.664 20.1461 18.144 19.0181 18.144H18.1781C15.8741 18.144 14.5061 16.368 14.5061 14.184V4.8ZM34.3963 14.664V14.16C34.3963 12.456 27.3643 12.576 27.3643 8.808V7.848C27.3643 6.168 28.8043 4.656 31.1803 4.656H32.6203C34.9963 4.656 36.4843 6.264 36.4843 8.16V8.664H34.0603V8.28C34.0603 7.416 33.2923 6.936 32.4763 6.936H31.4683C30.7003 6.936 30.0283 7.368 30.0283 8.016V8.52C30.0283 10.368 36.8683 10.2 36.8683 13.992V14.856C36.8683 16.56 35.3083 18.144 32.9083 18.144H31.0843C28.5403 18.144 27.0283 16.488 27.0283 14.688V14.064H29.5723V14.52C29.5723 15.312 30.3643 15.84 31.3723 15.84H32.7643C33.6523 15.84 34.3963 15.36 34.3963 14.664ZM44.6252 4.8V7.08H42.3212V13.92C42.3212 15.072 43.3052 15.888 44.5772 15.888V18.144C41.5532 18.144 39.7292 16.728 39.7292 13.92V7.08H38.1452V4.8H39.7532L40.5452 1.2H42.3212V4.8H44.6252ZM52.2217 4.656C54.7657 4.656 56.3497 6.504 56.3497 8.64V18H54.5737L54.2377 16.752C53.3017 17.64 52.1497 18.144 51.0697 18.144H49.7737C47.6137 18.144 46.2697 16.584 46.2697 14.904V13.68C46.2697 11.592 48.3097 10.488 50.4217 10.224L53.7817 9.816V8.808C53.7817 7.656 52.9177 6.936 51.8857 6.936H51.2857C50.2777 6.936 49.4137 7.608 49.4137 8.736V8.952H46.8217V8.568C46.8217 6.456 48.4057 4.656 50.9017 4.656H52.2217ZM51.1897 15.84C52.1737 15.84 53.1337 15.384 53.7817 14.664V11.976L50.7577 12.432C49.7257 12.6 48.8377 13.2 48.8377 13.968V14.592C48.8377 15.336 49.5097 15.84 50.2297 15.84H51.1897ZM59.3445 4.8H61.9365V18H59.3445V4.8ZM59.3445 -1.43051e-06H61.9365V3.192H59.3445V-1.43051e-06ZM74.8457 18H72.2537V8.76C72.2537 7.56 71.4137 6.936 70.4057 6.936H69.8537C68.9657 6.936 68.1257 7.344 67.5737 8.064V18H64.9817V4.8H66.7817L67.1177 6C68.0297 5.16 69.1337 4.656 70.3097 4.656H71.1737C73.4777 4.656 74.8457 6.408 74.8457 8.616V18ZM83.4536 4.656C85.9976 4.656 87.5816 6.504 87.5816 8.64V18H85.8056L85.4696 16.752C84.5336 17.64 83.3816 18.144 82.3016 18.144H81.0056C78.8456 18.144 77.5016 16.584 77.5016 14.904V13.68C77.5016 11.592 79.5416 10.488 81.6536 10.224L85.0136 9.816V8.808C85.0136 7.656 84.1496 6.936 83.1176 6.936H82.5176C81.5096 6.936 80.6456 7.608 80.6456 8.736V8.952H78.0536V8.568C78.0536 6.456 79.6376 4.656 82.1336 4.656H83.4536ZM82.4216 15.84C83.4056 15.84 84.3656 15.384 85.0136 14.664V11.976L81.9896 12.432C80.9576 12.6 80.0696 13.2 80.0696 13.968V14.592C80.0696 15.336 80.7416 15.84 81.4616 15.84H82.4216ZM92.3764 18H90.5764V-1.43051e-06H93.1684V5.592C93.9364 4.992 94.8244 4.656 95.7604 4.656H97.1044C99.3124 4.656 100.704 6.6 100.704 8.856V13.92C100.704 16.152 99.3124 18.144 97.1044 18.144H95.6164C94.5364 18.144 93.5284 17.664 92.6884 16.848L92.3764 18ZM95.4004 6.936C94.5364 6.936 93.7204 7.368 93.1684 8.064V14.712C93.7444 15.408 94.6084 15.84 95.4964 15.84H96.2644C97.2724 15.84 98.1124 15.096 98.1124 13.872V8.904C98.1124 7.704 97.2484 6.936 96.2404 6.936H95.4004ZM103.432 4.8H106.024V18H103.432V4.8ZM103.432 -1.43051e-06H106.024V3.192H103.432V-1.43051e-06ZM109.069 -1.43051e-06H111.661V18H109.069V-1.43051e-06ZM114.707 4.8H117.299V18H114.707V4.8ZM114.707 -1.43051e-06H117.299V3.192H114.707V-1.43051e-06ZM125.36 4.8V7.08H123.056V13.92C123.056 15.072 124.04 15.888 125.312 15.888V18.144C122.288 18.144 120.464 16.728 120.464 13.92V7.08H118.88V4.8H120.488L121.28 1.2H123.056V4.8H125.36ZM131.54 22.968H128.9L130.652 17.952L125.948 4.8H128.588L131.948 14.28L135.284 4.8H137.924L131.54 22.968Z" fill="white"/>
</svg>
