<svg width="166" height="19" viewBox="0 0 166 19" fill="none" xmlns="http://www.w3.org/2000/svg">
<g clip-path="url(#clip0_185_1673)">
<path d="M11.2219 2.1607C12.6544 2.89283 13.7528 3.92018 14.5287 5.26635C15.3047 6.61253 15.6987 8.17126 15.6987 9.94255C15.6987 11.7138 15.3047 13.2726 14.5287 14.5951C13.7528 15.9177 12.6425 16.945 11.2219 17.6772C9.78928 18.4093 8.14182 18.7636 6.25559 18.7636H0V1.0625H6.25559C8.14182 1.0625 9.78928 1.42857 11.2219 2.14889V2.1607ZM10.4936 14.2291C11.5203 13.2135 12.0337 11.7847 12.0337 9.94255C12.0337 8.10041 11.5203 6.65977 10.4936 5.62061C9.46695 4.58146 8.0105 4.06188 6.13621 4.06188H3.59338V15.7524H6.13621C8.02244 15.7524 9.46695 15.2446 10.4936 14.2291Z" fill="white"/>
<path d="M31.8032 4.72363V18.7758H28.186V17.0046C27.7204 17.6186 27.1235 18.0909 26.3833 18.4334C25.6432 18.7758 24.8314 18.953 23.9599 18.953C22.8496 18.953 21.8707 18.7168 21.0112 18.2563C20.1516 17.7957 19.4831 17.1108 18.9936 16.2016C18.5041 15.2923 18.2654 14.2177 18.2654 12.966V4.72363H21.8588V12.4583C21.8588 13.5683 22.1453 14.4303 22.7064 15.0325C23.2675 15.6348 24.0434 15.93 25.0104 15.93C25.9774 15.93 26.7773 15.6348 27.3384 15.0325C27.8995 14.4303 28.186 13.5683 28.186 12.4583V4.72363H31.8032Z" fill="white"/>
<path d="M40.733 5.14841C41.4731 4.7233 42.3327 4.51074 43.2877 4.51074V8.24225H42.3446C41.2105 8.24225 40.3629 8.50204 39.7898 9.03343C39.2168 9.56481 38.9303 10.4741 38.9303 11.773V18.7755H35.3369V4.7233H38.9303V6.90788C39.3959 6.16394 39.9928 5.58532 40.733 5.16021V5.14841Z" fill="white"/>
<path d="M45.6395 7.91179C46.2126 6.81359 46.9886 5.96338 47.9675 5.37295C48.9464 4.78252 50.0447 4.4873 51.2624 4.4873C52.3249 4.4873 53.2561 4.69986 54.044 5.12497C54.8439 5.55008 55.4766 6.08146 55.9541 6.71913V4.71167H59.5714V18.7639H55.9541V16.7092C55.4885 17.3705 54.8558 17.9137 54.044 18.3506C53.2322 18.7875 52.301 19 51.2385 19C50.0447 19 48.9464 18.693 47.9675 18.0908C46.9886 17.4767 46.2006 16.6265 45.6395 15.5165C45.0665 14.4065 44.78 13.1312 44.78 11.7023C44.78 10.2735 45.0665 9.0218 45.6395 7.9236V7.91179ZM55.4408 9.52957C55.0946 8.91552 54.6409 8.44318 54.0559 8.11254C53.471 7.7819 52.8502 7.61658 52.1817 7.61658C51.5131 7.61658 50.9043 7.7819 50.3312 8.10073C49.7582 8.41956 49.3046 8.8919 48.9584 9.50595C48.6121 10.12 48.4331 10.8521 48.4331 11.7023C48.4331 12.5526 48.6121 13.2847 48.9584 13.9224C49.3046 14.56 49.7701 15.0442 50.3432 15.3866C50.9162 15.7291 51.5251 15.8944 52.1817 15.8944C52.8383 15.8944 53.471 15.7291 54.0559 15.3984C54.6409 15.0678 55.0946 14.5954 55.4408 13.9814C55.787 13.3674 55.9541 12.6234 55.9541 11.7614C55.9541 10.8994 55.787 10.1554 55.4408 9.54138V9.52957Z" fill="white"/>
<path d="M77.4667 6.21088C76.9533 5.04183 76.1773 4.13257 75.1148 3.45948C74.0643 2.7864 72.8227 2.45576 71.414 2.45576C70.0769 2.45576 68.8831 2.76278 67.8206 3.36502C66.7581 3.97906 65.9225 4.84109 65.3136 5.9629C64.6928 7.08472 64.3944 8.39547 64.3944 9.88335C64.3944 11.3712 64.7048 12.682 65.3136 13.8156C65.9344 14.9492 66.7701 15.8231 67.8206 16.4253C68.8831 17.0393 70.0769 17.3346 71.414 17.3346C72.6675 17.3346 73.7897 17.063 74.7806 16.5316C75.7834 16.0002 76.5832 15.2326 77.1921 14.2525C77.8009 13.2606 78.1471 12.1152 78.2307 10.7926H70.6977V9.35196H80.1289V10.6509C80.0453 12.2096 79.6155 13.6149 78.8515 14.8784C78.0875 16.1419 77.0488 17.1338 75.7595 17.8541C74.4702 18.5863 73.0257 18.9405 71.414 18.9405C69.8024 18.9405 68.2504 18.5508 66.9014 17.7833C65.5524 17.0157 64.4899 15.9411 63.7139 14.5595C62.9379 13.1779 62.544 11.6192 62.544 9.88335C62.544 8.14749 62.9379 6.57695 63.7139 5.20715C64.4899 3.83736 65.5524 2.75097 66.9014 1.98341C68.2504 1.21585 69.7546 0.826172 71.414 0.826172C73.3241 0.826172 75.0074 1.29851 76.44 2.2432C77.8726 3.18789 78.9231 4.51045 79.5678 6.19907H77.4667V6.21088Z" fill="white"/>
<path d="M85.2145 0V18.7756H83.4238V0H85.2145Z" fill="white"/>
<path d="M89.3332 8.07727C89.9062 7.00269 90.7061 6.17609 91.7208 5.59747C92.7356 5.01885 93.8816 4.72363 95.1709 4.72363C96.4603 4.72363 97.6541 5.03066 98.6211 5.63289C99.5881 6.24694 100.28 7.0145 100.71 7.97099V4.92438H102.501V18.7758H100.71V15.7056C100.269 16.6503 99.5642 17.4297 98.5972 18.0555C97.6302 18.6696 96.4841 18.9766 95.1471 18.9766C93.81 18.9766 92.7356 18.6814 91.7208 18.0909C90.7061 17.5005 89.9062 16.6621 89.3332 15.5757C88.7601 14.4893 88.4736 13.2376 88.4736 11.8206C88.4736 10.4036 88.7601 9.15185 89.3332 8.07727ZM100.018 8.90387C99.5522 8.05365 98.9314 7.40418 98.1316 6.95545C97.3317 6.50673 96.4603 6.27056 95.5052 6.27056C94.5502 6.27056 93.619 6.49492 92.843 6.93184C92.0551 7.36875 91.4343 8.00642 90.9806 8.84483C90.527 9.68323 90.3002 10.6752 90.3002 11.8206C90.3002 12.966 90.527 13.9461 90.9806 14.7963C91.4343 15.6466 92.0551 16.296 92.843 16.7448C93.6309 17.1935 94.5143 17.4179 95.5052 17.4179C96.4961 17.4179 97.3437 17.1935 98.1316 16.733C98.9314 16.2724 99.5522 15.6229 100.018 14.7845C100.483 13.9343 100.71 12.9542 100.71 11.8442C100.71 10.7342 100.483 9.74228 100.018 8.90387Z" fill="white"/>
<path d="M107.491 17.8667C106.476 17.1345 105.903 16.1308 105.784 14.8555H107.634C107.718 15.6348 108.088 16.2607 108.745 16.7449C109.401 17.229 110.285 17.4652 111.395 17.4652C112.374 17.4652 113.138 17.2408 113.687 16.7803C114.236 16.3197 114.523 15.7529 114.523 15.0798C114.523 14.6075 114.367 14.2178 114.057 13.9108C113.747 13.6038 113.365 13.3676 112.887 13.1905C112.422 13.0133 111.777 12.8244 110.977 12.6237C109.938 12.3521 109.091 12.0805 108.434 11.8089C107.79 11.5373 107.228 11.1358 106.775 10.6044C106.321 10.073 106.094 9.35268 106.094 8.46704C106.094 7.79395 106.297 7.1681 106.715 6.58948C107.121 6.01086 107.706 5.56213 108.458 5.21968C109.21 4.87723 110.07 4.71191 111.025 4.71191C112.529 4.71191 113.747 5.08979 114.666 5.84554C115.585 6.60129 116.087 7.62863 116.158 8.95119H114.367C114.32 8.1364 113.997 7.48693 113.401 6.97916C112.816 6.4832 112.004 6.23522 110.977 6.23522C110.07 6.23522 109.342 6.44778 108.769 6.87288C108.207 7.29799 107.921 7.81757 107.921 8.44342C107.921 8.98662 108.088 9.42354 108.422 9.77779C108.757 10.1202 109.174 10.3918 109.664 10.5926C110.165 10.7933 110.822 11.0059 111.669 11.2421C112.672 11.5137 113.484 11.7734 114.081 12.0332C114.678 12.293 115.191 12.6591 115.621 13.155C116.051 13.651 116.266 14.3005 116.29 15.1035C116.29 15.8474 116.087 16.5087 115.669 17.0991C115.263 17.6777 114.69 18.1383 113.95 18.4807C113.209 18.8232 112.374 18.9885 111.407 18.9885C109.795 18.9885 108.482 18.6224 107.467 17.8903L107.491 17.8667Z" fill="white"/>
<path d="M120.563 17.8667C119.549 17.1345 118.976 16.1308 118.856 14.8555H120.707C120.79 15.6348 121.16 16.2607 121.817 16.7449C122.473 17.229 123.357 17.4652 124.467 17.4652C125.446 17.4652 126.21 17.2408 126.759 16.7803C127.308 16.3197 127.595 15.7529 127.595 15.0798C127.595 14.6075 127.44 14.2178 127.129 13.9108C126.819 13.6038 126.437 13.3676 125.959 13.1905C125.494 13.0133 124.849 12.8244 124.049 12.6237C123.011 12.3521 122.163 12.0805 121.507 11.8089C120.862 11.5373 120.301 11.1358 119.847 10.6044C119.393 10.073 119.167 9.35268 119.167 8.46704C119.167 7.79395 119.37 7.1681 119.787 6.58948C120.193 6.01086 120.778 5.56213 121.53 5.21968C122.282 4.87723 123.142 4.71191 124.097 4.71191C125.601 4.71191 126.819 5.08979 127.738 5.84554C128.657 6.60129 129.159 7.62863 129.23 8.95119H127.44C127.392 8.1364 127.07 7.48693 126.473 6.97916C125.888 6.4832 125.076 6.23522 124.049 6.23522C123.142 6.23522 122.414 6.44778 121.841 6.87288C121.28 7.29799 120.993 7.81757 120.993 8.44342C120.993 8.98662 121.16 9.42354 121.495 9.77779C121.829 10.1202 122.247 10.3918 122.736 10.5926C123.238 10.7933 123.894 11.0059 124.742 11.2421C125.745 11.5137 126.556 11.7734 127.153 12.0332C127.75 12.293 128.264 12.6591 128.693 13.155C129.123 13.651 129.338 14.3005 129.362 15.1035C129.362 15.8474 129.159 16.5087 128.741 17.0991C128.335 17.6777 127.762 18.1383 127.022 18.4807C126.282 18.8232 125.446 18.9885 124.479 18.9885C122.867 18.9885 121.554 18.6224 120.54 17.8903L120.563 17.8667Z" fill="white"/>
<path d="M139.223 9.91902L144.655 18.7755H142.649L138.089 11.3715L133.755 18.7755H131.749L137.157 9.84817L131.749 1.05078H133.755L138.292 8.43114L142.673 1.05078H144.678L139.211 9.93083L139.223 9.91902Z" fill="white"/>
<path d="M146.35 0.885742H153.143V2.96405H151.089V9.81303H148.391L148.415 2.96405H146.338V0.885742H146.35ZM166 0.885742V9.81303H163.517L163.469 4.20395L161.141 9.81303H159.315L156.987 4.00321V9.81303H154.575V0.885742H158.145L160.329 6.6129L162.693 0.885742H166.024H166Z" fill="white"/>
</g>
<defs>
<clipPath id="clip0_185_1673">
<rect width="166" height="19" fill="white"/>
</clipPath>
</defs>
</svg>
