<svg width="209" height="23" viewBox="0 0 209 23" fill="none" xmlns="http://www.w3.org/2000/svg">
<g clip-path="url(#clip0_188_1827)">
<path d="M0 0.299805H7.21C10.83 0.299805 13.57 2.6198 13.57 5.8898C13.57 9.1598 10.83 11.4798 7.21 11.4798H2.52V17.4398H0V0.299805ZM6.86 9.1298C9.33 9.1298 11 7.9098 11 5.8898C11 3.8698 9.33 2.6498 6.86 2.6498H2.52V9.1398H6.86V9.1298Z" fill="white"/>
<path d="M31.21 0.299805V17.4398H28.69V9.8798H19.33V17.4398H16.81V0.299805H19.33V7.5398H28.69V0.299805H31.21Z" fill="white"/>
<path d="M54.98 0.299805H57.5L67.35 13.2998V0.299805H69.87V17.4398H67.35L57.5 4.4398V17.4398H54.98V0.299805Z" fill="white"/>
<path d="M78.87 2.6498H73.26V0.299805H87.03V2.6498H81.39V17.4498H78.87V2.6498Z" fill="white"/>
<path d="M88.79 8.86C88.79 4.05 92.88 0 97.7 0C102.52 0 106.56 4.04 106.56 8.86C106.56 13.68 102.52 17.74 97.7 17.74C92.88 17.74 88.79 13.67 88.79 8.86ZM103.98 8.86C103.98 5.32 101.11 2.32 97.69 2.32C94.27 2.32 91.38 5.31 91.38 8.86C91.38 12.41 94.27 15.42 97.69 15.42C101.11 15.42 103.98 12.43 103.98 8.86Z" fill="white"/>
<path d="M110.62 0.299805H113.14L119.15 11.4998L125.17 0.299805H127.69V17.4398H125.17V5.2398L119.16 16.4398L113.15 5.2398V17.4398H110.63V0.299805H110.62Z" fill="white"/>
<path d="M44.42 0.299805H41.62L34.26 17.4398H37.05L39.53 11.6798H39.52L40.18 10.1398L40.2 10.1098L43.02 3.5398L46.51 11.6798L47.48 13.9498L48.98 17.4398H51.78L44.42 0.299805Z" fill="white"/>
<path d="M137.62 17.4396V0.30957H139.94V17.4396H137.62ZM139.15 17.4396V15.3196H143.91C145.18 15.3196 146.29 15.0396 147.24 14.4896C148.19 13.9396 148.94 13.1796 149.47 12.2096C150.01 11.2396 150.27 10.1196 150.27 8.84957C150.27 7.57957 150 6.48957 149.46 5.51957C148.92 4.54957 148.17 3.78957 147.21 3.24957C146.26 2.70957 145.15 2.43957 143.9 2.43957H139.16V0.30957H143.95C145.2 0.30957 146.36 0.51957 147.42 0.94957C148.48 1.37957 149.4 1.97957 150.18 2.74957C150.96 3.51957 151.57 4.42957 152.01 5.45957C152.45 6.49957 152.66 7.62957 152.66 8.86957C152.66 10.1096 152.44 11.2196 152.01 12.2596C151.57 13.3096 150.97 14.2096 150.2 14.9896C149.43 15.7596 148.51 16.3596 147.45 16.7896C146.39 17.2196 145.24 17.4296 144.01 17.4296H139.15V17.4396Z" fill="#B3B3B3"/>
<path d="M160.82 17.6893C159.65 17.6893 158.6 17.4193 157.66 16.8893C156.72 16.3593 155.98 15.6293 155.44 14.7093C154.9 13.7893 154.63 12.7393 154.63 11.5793C154.63 10.4193 154.9 9.38926 155.43 8.46926C155.96 7.54926 156.69 6.81926 157.6 6.28926C158.51 5.75926 159.54 5.48926 160.67 5.48926C161.8 5.48926 162.71 5.73926 163.55 6.22926C164.39 6.71926 165.03 7.40926 165.5 8.27926C165.97 9.14926 166.2 10.1393 166.2 11.2393C166.2 11.3993 166.2 11.5793 166.18 11.7693C166.16 11.9593 166.13 12.1793 166.08 12.4193H156.18V10.5693H164.89L164.08 11.2893C164.08 10.4993 163.94 9.82926 163.66 9.27926C163.38 8.72926 162.99 8.29926 162.48 7.99926C161.97 7.69926 161.35 7.53926 160.63 7.53926C159.91 7.53926 159.21 7.69926 158.63 8.02926C158.05 8.35926 157.61 8.81926 157.3 9.40926C156.99 9.99926 156.83 10.6993 156.83 11.5093C156.83 12.3193 156.99 13.0493 157.32 13.6693C157.65 14.2893 158.12 14.7593 158.73 15.0993C159.34 15.4393 160.04 15.6093 160.83 15.6093C161.49 15.6093 162.09 15.4993 162.64 15.2593C163.19 15.0293 163.66 14.6793 164.06 14.2193L165.49 15.6793C164.93 16.3393 164.24 16.8393 163.43 17.1893C162.62 17.5393 161.75 17.7093 160.83 17.7093L160.82 17.6893Z" fill="#B3B3B3"/>
<path d="M172.11 17.6897C171.45 17.6897 170.83 17.5997 170.25 17.4297C169.67 17.2597 169.13 17.0097 168.63 16.6897C168.14 16.3697 167.71 15.9897 167.35 15.5397L168.78 14.1097C169.21 14.6397 169.7 15.0297 170.26 15.2797C170.82 15.5397 171.44 15.6597 172.14 15.6597C172.84 15.6597 173.37 15.5397 173.74 15.2997C174.12 15.0597 174.31 14.7297 174.31 14.2997C174.31 13.8697 174.16 13.5397 173.85 13.2997C173.55 13.0597 173.15 12.8597 172.68 12.7097C172.2 12.5497 171.7 12.3997 171.16 12.2397C170.62 12.0797 170.12 11.8797 169.64 11.6397C169.16 11.3897 168.77 11.0597 168.47 10.6297C168.17 10.1997 168.01 9.62973 168.01 8.92973C168.01 8.22973 168.18 7.60973 168.53 7.08973C168.87 6.56973 169.36 6.16973 169.97 5.88973C170.59 5.60973 171.33 5.46973 172.2 5.46973C173.12 5.46973 173.94 5.62973 174.66 5.94973C175.38 6.26973 175.96 6.74973 176.42 7.38973L174.99 8.81973C174.66 8.38973 174.25 8.05973 173.77 7.82973C173.28 7.59973 172.74 7.47973 172.13 7.47973C171.49 7.47973 171 7.58973 170.66 7.80973C170.32 8.02973 170.15 8.33973 170.15 8.73973C170.15 9.13973 170.3 9.43973 170.59 9.64973C170.89 9.85973 171.28 10.0497 171.76 10.1897C172.25 10.3397 172.75 10.4897 173.28 10.6497C173.81 10.8097 174.31 11.0197 174.79 11.2797C175.27 11.5397 175.66 11.8997 175.96 12.3397C176.26 12.7797 176.42 13.3697 176.42 14.0897C176.42 15.1897 176.03 16.0597 175.25 16.7097C174.47 17.3497 173.42 17.6697 172.1 17.6697L172.11 17.6897Z" fill="#B3B3B3"/>
<path d="M179.89 3.3693C179.48 3.3693 179.14 3.2293 178.88 2.9593C178.62 2.6893 178.49 2.3493 178.49 1.9393C178.49 1.5293 178.62 1.2093 178.88 0.939297C179.14 0.669297 179.48 0.529297 179.89 0.529297C180.3 0.529297 180.64 0.669297 180.9 0.939297C181.16 1.2093 181.29 1.5393 181.29 1.9393C181.29 2.3393 181.16 2.6893 180.9 2.9593C180.64 3.2293 180.3 3.3693 179.89 3.3693ZM178.77 17.4393V5.7193H180.99V17.4393H178.77Z" fill="#B3B3B3"/>
<path d="M188.92 17.2397C187.85 17.2397 186.89 16.9897 186.04 16.4797C185.19 15.9697 184.52 15.2697 184.03 14.3697C183.54 13.4697 183.29 12.4697 183.29 11.3497C183.29 10.2297 183.54 9.22973 184.03 8.34973C184.52 7.46973 185.19 6.76973 186.04 6.24973C186.89 5.72973 187.85 5.46973 188.92 5.46973C189.84 5.46973 190.66 5.64973 191.36 6.00973C192.07 6.36973 192.63 6.87973 193.05 7.52973C193.47 8.17973 193.7 8.93973 193.73 9.80973V12.9197C193.68 13.7797 193.45 14.5297 193.03 15.1797C192.61 15.8297 192.05 16.3397 191.34 16.6997C190.63 17.0597 189.83 17.2397 188.92 17.2397ZM188.92 22.5997C187.72 22.5997 186.65 22.3797 185.72 21.9297C184.79 21.4897 184.05 20.8597 183.49 20.0497L184.92 18.5897C185.4 19.1997 185.96 19.6597 186.62 19.9797C187.28 20.2997 188.06 20.4597 188.96 20.4597C190.16 20.4597 191.11 20.1397 191.81 19.5097C192.51 18.8797 192.86 18.0197 192.86 16.9597V14.0497L193.25 11.4097L192.86 8.78973V5.70973H195.08V16.9597C195.08 18.0797 194.82 19.0597 194.3 19.8997C193.78 20.7397 193.06 21.3997 192.13 21.8697C191.2 22.3497 190.13 22.5897 188.91 22.5897L188.92 22.5997ZM189.36 15.1497C190.08 15.1497 190.72 14.9897 191.27 14.6797C191.82 14.3697 192.24 13.9297 192.54 13.3597C192.84 12.7897 192.98 12.1297 192.98 11.3697C192.98 10.6097 192.83 9.94973 192.52 9.37973C192.22 8.80973 191.79 8.36973 191.25 8.04973C190.71 7.72973 190.07 7.56973 189.33 7.56973C188.59 7.56973 187.94 7.72973 187.38 8.04973C186.82 8.36973 186.38 8.81973 186.06 9.37973C185.74 9.94973 185.58 10.5997 185.58 11.3397C185.58 12.0797 185.74 12.7397 186.06 13.3097C186.38 13.8897 186.82 14.3297 187.39 14.6597C187.96 14.9797 188.61 15.1397 189.35 15.1397L189.36 15.1497Z" fill="#B3B3B3"/>
<path d="M198.14 17.4397V5.71973H200.36V17.4397H198.14ZM206.43 17.4397V10.5997C206.43 9.70973 206.15 8.97973 205.59 8.39973C205.03 7.81973 204.31 7.53973 203.42 7.53973C202.83 7.53973 202.3 7.66973 201.84 7.92973C201.38 8.18973 201.02 8.55973 200.75 9.01973C200.49 9.47973 200.35 10.0097 200.35 10.5997L199.44 10.0797C199.44 9.18973 199.64 8.39973 200.03 7.70973C200.42 7.01973 200.98 6.46973 201.68 6.06973C202.39 5.66973 203.19 5.46973 204.07 5.46973C204.95 5.46973 205.74 5.68973 206.43 6.13973C207.11 6.57973 207.65 7.15973 208.05 7.87973C208.45 8.59973 208.64 9.35973 208.64 10.1597V17.4397H206.42H206.43Z" fill="#B3B3B3"/>
</g>
<defs>
<clipPath id="clip0_188_1827">
<rect width="208.65" height="22.6" fill="white"/>
</clipPath>
</defs>
</svg>
