<svg width="192" height="23" viewBox="0 0 192 23" fill="none" xmlns="http://www.w3.org/2000/svg">
<path d="M2.68801 18H8.22544e-06V1.176H6.81601C9.60001 1.176 11.376 2.88 11.376 4.8V8.328C11.376 10.248 9.67201 12.048 6.96001 12.048H2.68801V18ZM6.50401 3.576H2.68801V9.672H6.64801C7.77601 9.672 8.68801 8.904 8.68801 7.776V5.352C8.68801 4.224 7.72801 3.576 6.50401 3.576ZM18.5381 15.768H21.0341C22.1861 15.768 23.0981 15.024 23.0981 13.848V5.352C23.0981 4.176 22.1861 3.432 21.0341 3.432H18.5381C17.4341 3.432 16.4981 4.176 16.4981 5.352V13.848C16.4981 15.024 17.4341 15.768 18.5381 15.768ZM21.3461 18.144H18.3941C15.5861 18.144 13.8101 16.368 13.8101 14.4V4.8C13.8101 2.832 15.5861 1.056 18.3941 1.056H21.3461C24.0581 1.056 25.7621 2.832 25.7621 4.8V14.4C25.7621 16.368 24.0581 18.144 21.3461 18.144ZM38.9359 15.624V18H28.7119V1.176H38.6959V3.576H31.3999V8.184H37.9759V10.584H31.3999V15.624H38.9359ZM59.1868 15.624V18H48.9628V1.176H58.9468V3.576H51.6508V8.184H58.2268V10.584H51.6508V15.624H59.1868ZM72.0321 18H69.4401V8.76C69.4401 7.56 68.6001 6.936 67.5921 6.936H67.0401C66.1521 6.936 65.3121 7.344 64.7601 8.064V18H62.1681V4.8H63.9681L64.3041 6C65.2161 5.16 66.3201 4.656 67.4961 4.656H68.3601C70.6641 4.656 72.0321 6.408 72.0321 8.616V18ZM84.624 9.408H82.032V8.88C82.032 7.68 81.168 6.936 80.112 6.936H79.248C78.192 6.936 77.328 7.68 77.328 8.88V13.92C77.328 15.12 78.192 15.84 79.248 15.84H80.112C81.168 15.84 82.032 15.12 82.032 13.92V13.392H84.624V14.184C84.624 16.272 83.04 18.144 80.544 18.144H78.96C76.368 18.144 74.736 16.272 74.736 14.184V8.688C74.736 6.528 76.368 4.656 78.96 4.656H80.544C83.04 4.656 84.624 6.528 84.624 8.688V9.408ZM92.9803 4.656C95.5243 4.656 97.1083 6.504 97.1083 8.64V18H95.3323L94.9963 16.752C94.0603 17.64 92.9083 18.144 91.8283 18.144H90.5323C88.3723 18.144 87.0283 16.584 87.0283 14.904V13.68C87.0283 11.592 89.0683 10.488 91.1803 10.224L94.5403 9.816V8.808C94.5403 7.656 93.6763 6.936 92.6443 6.936H92.0443C91.0363 6.936 90.1723 7.608 90.1723 8.736V8.952H87.5803V8.568C87.5803 6.456 89.1643 4.656 91.6603 4.656H92.9803ZM91.9483 15.84C92.9323 15.84 93.8923 15.384 94.5403 14.664V11.976L91.5163 12.432C90.4843 12.6 89.5963 13.2 89.5963 13.968V14.592C89.5963 15.336 90.2683 15.84 90.9883 15.84H91.9483ZM100.103 4.8H101.903L102.215 5.976C103.103 5.16 104.159 4.656 105.287 4.656H106.631C108.839 4.656 110.231 6.6 110.231 8.856V13.92C110.231 16.152 108.839 18.144 106.631 18.144H105.143C104.255 18.144 103.415 17.832 102.695 17.28V22.968H100.103V4.8ZM104.927 6.936C104.063 6.936 103.247 7.368 102.695 8.064V14.712C103.271 15.408 104.135 15.84 105.023 15.84H105.791C106.799 15.84 107.639 15.096 107.639 13.872V8.904C107.639 7.704 106.775 6.936 105.767 6.936H104.927ZM120.063 14.664V14.16C120.063 12.456 113.031 12.576 113.031 8.808V7.848C113.031 6.168 114.471 4.656 116.847 4.656H118.287C120.663 4.656 122.151 6.264 122.151 8.16V8.664H119.727V8.28C119.727 7.416 118.959 6.936 118.143 6.936H117.135C116.367 6.936 115.695 7.368 115.695 8.016V8.52C115.695 10.368 122.535 10.2 122.535 13.992V14.856C122.535 16.56 120.975 18.144 118.575 18.144H116.751C114.207 18.144 112.695 16.488 112.695 14.688V14.064H115.239V14.52C115.239 15.312 116.031 15.84 117.039 15.84H118.431C119.319 15.84 120.063 15.36 120.063 14.664ZM125.252 4.8H127.82V14.04C127.82 15.24 128.66 15.864 129.692 15.864H130.244C131.036 15.864 131.852 15.48 132.404 14.856V4.8H134.996V18H133.22L132.884 16.848C131.996 17.664 130.892 18.144 129.764 18.144H128.924C126.62 18.144 125.252 16.368 125.252 14.184V4.8ZM138.038 -1.43051e-06H140.63V18H138.038V-1.43051e-06ZM149.291 4.656C151.835 4.656 153.419 6.504 153.419 8.64V18H151.643L151.307 16.752C150.371 17.64 149.219 18.144 148.139 18.144H146.843C144.683 18.144 143.339 16.584 143.339 14.904V13.68C143.339 11.592 145.379 10.488 147.491 10.224L150.851 9.816V8.808C150.851 7.656 149.987 6.936 148.955 6.936H148.355C147.347 6.936 146.483 7.608 146.483 8.736V8.952H143.891V8.568C143.891 6.456 145.475 4.656 147.971 4.656H149.291ZM148.259 15.84C149.243 15.84 150.203 15.384 150.851 14.664V11.976L147.827 12.432C146.795 12.6 145.907 13.2 145.907 13.968V14.592C145.907 15.336 146.579 15.84 147.299 15.84H148.259ZM161.43 4.8V7.08H159.126V13.92C159.126 15.072 160.11 15.888 161.382 15.888V18.144C158.358 18.144 156.534 16.728 156.534 13.92V7.08H154.95V4.8H156.558L157.35 1.2H159.126V4.8H161.43ZM163.411 4.8H166.003V18H163.411V4.8ZM163.411 -1.43051e-06H166.003V3.192H163.411V-1.43051e-06ZM173.272 15.84H174.376C175.432 15.84 176.296 15.12 176.296 13.92V8.88C176.296 7.68 175.432 6.936 174.376 6.936H173.272C172.216 6.936 171.352 7.68 171.352 8.88V13.92C171.352 15.12 172.216 15.84 173.272 15.84ZM174.808 18.144H172.984C170.392 18.144 168.76 16.272 168.76 14.184V8.688C168.76 6.528 170.392 4.656 172.984 4.656H174.808C177.304 4.656 178.888 6.528 178.888 8.688V14.184C178.888 16.272 177.304 18.144 174.808 18.144ZM191.486 18H188.894V8.76C188.894 7.56 188.054 6.936 187.046 6.936H186.494C185.606 6.936 184.766 7.344 184.214 8.064V18H181.622V4.8H183.422L183.758 6C184.67 5.16 185.774 4.656 186.95 4.656H187.814C190.118 4.656 191.486 6.408 191.486 8.616V18Z" fill="white"/>
</svg>
