<svg width="251" height="18" viewBox="0 0 251 18" fill="none" xmlns="http://www.w3.org/2000/svg">
<g clip-path="url(#clip0_188_1761)">
<path d="M10.7846 13.8873H3.21159L1.76439 17.785H0L6.06635 1.56738H7.94969L13.9962 17.785H12.2318L10.7846 13.8873ZM10.2692 12.5358L6.9981 3.64355L3.70721 12.5358H10.2692Z" fill="white"/>
<path d="M18.318 0.391602V17.7844H16.6527V0.391602H18.318Z" fill="white"/>
<path d="M33.3451 4.95513V17.7843H31.6798V15.5318C31.3031 16.3349 30.7084 16.9421 29.9154 17.373C29.1224 17.8039 28.2303 17.9997 27.2589 17.9997C25.7126 17.9997 24.4438 17.5297 23.4526 16.5699C22.4613 15.6298 21.9855 14.2391 21.9855 12.4372V4.93555H23.631V12.2413C23.631 13.632 23.9878 14.7092 24.6817 15.4339C25.3954 16.1782 26.347 16.5308 27.5761 16.5308C28.8052 16.5308 29.8361 16.139 30.5696 15.3556C31.3229 14.5721 31.6798 13.4165 31.6798 11.9083V4.93555H33.3451V4.95513Z" fill="white"/>
<path d="M42.2662 6.34603H39.2528V17.7845H37.5876V6.34603H35.7835V4.95539H37.5876V4.05441C37.5876 2.66376 37.9444 1.62568 38.6779 0.979325C39.4114 0.332971 40.5613 0 42.1869 0V1.41023C41.1163 1.41023 40.3432 1.60609 39.907 2.01741C39.4709 2.42873 39.2528 3.11425 39.2528 4.05441V4.95539H42.2662V6.34603Z" fill="white"/>
<path d="M47.2818 17.1776C46.3104 16.6291 45.5373 15.8653 44.9822 14.8663C44.4271 13.8674 44.1297 12.7118 44.1297 11.38C44.1297 10.0481 44.4072 8.89246 44.9822 7.89355C45.5571 6.89464 46.3302 6.13077 47.3215 5.58234C48.3127 5.03392 49.4031 4.7793 50.6322 4.7793C51.8613 4.7793 52.9517 5.05351 53.9429 5.58234C54.9341 6.13077 55.7073 6.89464 56.2822 7.89355C56.8373 8.89246 57.1347 10.0481 57.1347 11.38C57.1347 12.7118 56.8571 13.8479 56.2822 14.8663C55.7073 15.8653 54.9341 16.6487 53.9231 17.1776C52.9318 17.726 51.8217 17.9806 50.5925 17.9806C49.3634 17.9806 48.2731 17.7064 47.3016 17.1776H47.2818ZM52.9517 15.9632C53.6852 15.5715 54.2799 15.0035 54.7161 14.22C55.172 13.4365 55.3901 12.4964 55.3901 11.3604C55.3901 10.2243 55.172 9.28419 54.7161 8.50073C54.2799 7.71727 53.6852 7.14926 52.9517 6.75753C52.2182 6.3658 51.4252 6.18953 50.5727 6.18953C49.7203 6.18953 48.9273 6.38539 48.1938 6.75753C47.4602 7.14926 46.8853 7.71727 46.4492 8.50073C46.013 9.28419 45.795 10.2243 45.795 11.3604C45.795 12.4964 46.013 13.4365 46.4492 14.22C46.8853 15.0035 47.4602 15.5715 48.1938 15.9632C48.9074 16.3549 49.7004 16.5312 50.5529 16.5312C51.4053 16.5312 52.1983 16.3353 52.9318 15.9632H52.9517Z" fill="white"/>
<path d="M63.4984 5.38664C64.2517 4.95574 65.1835 4.7207 66.2738 4.7207V6.44432H65.8179C64.6086 6.44432 63.6372 6.7577 62.9235 7.40405C62.19 8.05041 61.8331 9.12767 61.8331 10.6162V17.7849H60.1678V4.95574H61.8331V7.22778C62.19 6.42473 62.7649 5.81755 63.5182 5.36706L63.4984 5.38664Z" fill="white"/>
<path d="M68.8312 7.89355C69.3665 6.89464 70.1198 6.13077 71.0714 5.58234C72.023 5.03392 73.1133 4.7793 74.3226 4.7793C75.9284 4.7793 77.2369 5.17103 78.2876 5.95449C79.3383 6.73795 79.9925 7.79562 80.2899 9.14709H78.5056C78.2876 8.22652 77.8118 7.50182 77.0584 6.97299C76.3051 6.44415 75.413 6.18953 74.3028 6.18953C73.4305 6.18953 72.6375 6.38539 71.9437 6.77712C71.2498 7.16885 70.6947 7.75645 70.2982 8.52032C69.9017 9.28419 69.6837 10.2439 69.6837 11.38C69.6837 12.516 69.8819 13.4561 70.2982 14.2396C70.7146 15.023 71.2498 15.6106 71.9437 16.0024C72.6375 16.3941 73.4305 16.59 74.3028 16.59C75.3932 16.59 76.3051 16.3353 77.0584 15.8065C77.792 15.2777 78.2677 14.553 78.5056 13.6128H80.2899C79.9925 14.9251 79.3185 15.9828 78.2677 16.7858C77.217 17.5889 75.9086 17.9806 74.3226 17.9806C73.0935 17.9806 72.023 17.7064 71.0714 17.1776C70.1198 16.6291 69.3665 15.8653 68.8312 14.8663C68.2959 13.8674 68.0184 12.7118 68.0184 11.38C68.0184 10.0481 68.2959 8.89246 68.8312 7.89355Z" fill="white"/>
<path d="M95.0592 12.0068H84.2746C84.3143 12.9861 84.5522 13.8087 84.9883 14.4943C85.4244 15.1798 85.9795 15.7086 86.6734 16.0612C87.3673 16.4137 88.1404 16.59 88.9532 16.59C90.0238 16.59 90.9357 16.3354 91.6692 15.8066C92.4027 15.2973 92.8983 14.5922 93.1362 13.7108H94.9006C94.5834 14.9643 93.9094 15.9828 92.8587 16.7859C91.8278 17.5693 90.5194 17.9807 88.9532 17.9807C87.7241 17.9807 86.6338 17.7064 85.6623 17.1776C84.6909 16.6292 83.9376 15.8653 83.3825 14.8664C82.8274 13.8675 82.5697 12.7119 82.5697 11.38C82.5697 10.0481 82.8472 8.87293 83.3825 7.87402C83.9178 6.87511 84.6711 6.11123 85.6425 5.56281C86.6139 5.03398 87.7043 4.75977 88.9532 4.75977C90.2022 4.75977 91.2727 5.03398 92.2045 5.56281C93.1362 6.09165 93.8499 6.81635 94.3455 7.71733C94.8412 8.61831 95.0989 9.61722 95.0989 10.7141C95.0989 11.2821 95.0989 11.713 95.0592 12.0068ZM92.8389 8.22658C92.4424 7.56064 91.8873 7.05139 91.1934 6.69883C90.4996 6.34627 89.7264 6.18958 88.9136 6.18958C87.6845 6.18958 86.6139 6.58131 85.7416 7.36477C84.8694 8.14823 84.3936 9.24508 84.2944 10.6749H93.4336C93.4336 9.71515 93.2552 8.91211 92.8587 8.22658H92.8389Z" fill="white"/>
<path d="M115.28 10.7726C115.875 11.5168 116.192 12.3787 116.192 13.358C116.192 14.2394 115.974 15.0032 115.538 15.6692C115.102 16.3351 114.468 16.864 113.655 17.2361C112.842 17.6083 111.851 17.8041 110.721 17.8041H103.564V1.39062H110.423C111.553 1.39062 112.525 1.5669 113.338 1.93905C114.15 2.31119 114.765 2.80085 115.201 3.44721C115.617 4.09356 115.835 4.81826 115.835 5.6409C115.835 6.60064 115.578 7.40368 115.062 8.03045C114.547 8.67681 113.853 9.1273 113.001 9.40151C113.932 9.57779 114.705 10.0283 115.3 10.7921L115.28 10.7726ZM106.895 8.14797H109.948C110.741 8.14797 111.355 7.97169 111.771 7.61913C112.188 7.26658 112.406 6.75733 112.406 6.11097C112.406 5.46462 112.188 4.93578 111.771 4.58323C111.335 4.23067 110.741 4.0348 109.948 4.0348H106.895V8.14797ZM112.128 14.5528C112.584 14.1806 112.802 13.6518 112.802 12.9467C112.802 12.2416 112.564 11.6931 112.089 11.2818C111.613 10.8901 110.978 10.6746 110.166 10.6746H106.875V15.1012H110.225C111.038 15.1012 111.672 14.9053 112.108 14.5332L112.128 14.5528Z" fill="white"/>
<path d="M122.179 0.391602V17.7844H118.849V0.391602H122.179Z" fill="white"/>
<path d="M125.411 7.73649C125.946 6.71799 126.66 5.93453 127.572 5.38611C128.484 4.83769 129.495 4.56348 130.625 4.56348C131.616 4.56348 132.468 4.75934 133.202 5.15107C133.935 5.5428 134.53 6.03246 134.966 6.63965V4.77893H138.317V17.804H134.966V15.9041C134.53 16.5112 133.955 17.0205 133.202 17.4122C132.449 17.804 131.576 18.0194 130.605 18.0194C129.495 18.0194 128.484 17.7452 127.572 17.1772C126.66 16.6092 125.946 15.8257 125.411 14.7876C124.876 13.7691 124.618 12.5744 124.618 11.2425C124.618 9.91059 124.876 8.75499 125.411 7.73649ZM134.51 9.22507C134.193 8.65706 133.757 8.20657 133.222 7.91277C132.686 7.59939 132.112 7.46228 131.477 7.46228C130.843 7.46228 130.288 7.61897 129.772 7.91277C129.257 8.20657 128.821 8.63747 128.503 9.22507C128.186 9.79307 128.008 10.4786 128.008 11.2621C128.008 12.0455 128.166 12.7311 128.503 13.3186C128.821 13.9062 129.257 14.3567 129.792 14.6701C130.327 14.9835 130.882 15.1402 131.497 15.1402C132.112 15.1402 132.686 14.9835 133.242 14.6897C133.777 14.3763 134.213 13.9454 134.53 13.3774C134.847 12.8094 135.006 12.1239 135.006 11.3208C135.006 10.5178 134.847 9.83225 134.53 9.26424L134.51 9.22507Z" fill="white"/>
<path d="M141.568 7.73655C142.123 6.71805 142.896 5.93459 143.868 5.38617C144.859 4.83774 145.969 4.54395 147.238 4.54395C148.863 4.54395 150.231 4.95526 151.302 5.75831C152.372 6.56136 153.086 7.69737 153.463 9.14678H149.874C149.676 8.57877 149.359 8.14786 148.903 7.81489C148.447 7.50151 147.892 7.32523 147.218 7.32523C146.266 7.32523 145.513 7.6582 144.958 8.34373C144.403 9.02926 144.125 9.98899 144.125 11.2425C144.125 12.4961 144.403 13.4362 144.958 14.1217C145.513 14.8073 146.266 15.1402 147.218 15.1402C148.566 15.1402 149.438 14.5527 149.855 13.3579H153.443C153.086 14.7681 152.352 15.8845 151.282 16.7268C150.211 17.5494 148.863 17.9803 147.238 17.9803C145.969 17.9803 144.839 17.7061 143.868 17.1381C142.876 16.5896 142.123 15.8062 141.568 14.7877C141.013 13.7692 140.735 12.594 140.735 11.2425C140.735 9.89106 141.013 8.71587 141.568 7.69737V7.73655Z" fill="white"/>
<path d="M163.712 17.7844L159.232 12.2414V17.7844H155.901V0.391602H159.232V10.2828L163.653 4.75939H167.974L162.166 11.3013L168.014 17.7844H163.692H163.712Z" fill="white"/>
<path d="M185.717 1.39062V4.05439H178.799V8.26549H184.112V10.8705H178.799V17.8041H175.468V1.39062H185.717Z" fill="white"/>
<path d="M193.092 5.1706C193.786 4.77887 194.579 4.58301 195.451 4.58301V8.03023H194.579C193.528 8.03023 192.735 8.26527 192.22 8.75493C191.685 9.2446 191.427 10.0868 191.427 11.3012V17.7843H188.096V4.77887H191.427V6.79628C191.863 6.11076 192.418 5.56233 193.112 5.1706H193.092Z" fill="white"/>
<path d="M197.632 7.73649C198.167 6.71799 198.881 5.93453 199.793 5.38611C200.705 4.83769 201.716 4.56348 202.846 4.56348C203.837 4.56348 204.69 4.75934 205.423 5.15107C206.157 5.5428 206.751 6.03246 207.188 6.63965V4.77893H210.538V17.804H207.188V15.9041C206.751 16.5112 206.176 17.0205 205.423 17.4122C204.67 17.804 203.797 18.0194 202.826 18.0194C201.716 18.0194 200.705 17.7452 199.793 17.1772C198.881 16.6092 198.167 15.8257 197.632 14.7876C197.097 13.7691 196.839 12.5744 196.839 11.2425C196.839 9.91059 197.097 8.75499 197.632 7.73649ZM206.732 9.22507C206.414 8.65706 205.978 8.20657 205.443 7.91277C204.908 7.59939 204.333 7.46228 203.698 7.46228C203.064 7.46228 202.509 7.61897 201.993 7.91277C201.478 8.20657 201.042 8.63747 200.725 9.22507C200.407 9.79307 200.229 10.4786 200.229 11.2621C200.229 12.0455 200.388 12.7311 200.725 13.3186C201.042 13.9062 201.478 14.3567 202.013 14.6701C202.549 14.9835 203.104 15.1402 203.718 15.1402C204.333 15.1402 204.908 14.9835 205.463 14.6897C205.998 14.3763 206.434 13.9454 206.751 13.3774C207.069 12.8094 207.227 12.1239 207.227 11.3208C207.227 10.5178 207.069 9.83225 206.751 9.26424L206.732 9.22507Z" fill="white"/>
<path d="M234.09 6.052C235.081 7.03132 235.576 8.40238 235.576 10.1456V17.7843H232.246V10.5961C232.246 9.57757 231.988 8.79411 231.453 8.26527C230.937 7.71685 230.224 7.46222 229.312 7.46222C228.4 7.46222 227.686 7.73644 227.151 8.26527C226.616 8.81369 226.358 9.57757 226.358 10.5961V17.7843H223.027V10.5961C223.027 9.57757 222.77 8.79411 222.234 8.26527C221.719 7.71685 221.005 7.46222 220.093 7.46222C219.181 7.46222 218.448 7.73644 217.913 8.26527C217.377 8.81369 217.12 9.57757 217.12 10.5961V17.7843H213.789V4.77887H217.12V6.34579C217.556 5.79737 218.091 5.36647 218.765 5.05308C219.439 4.7397 220.173 4.58301 220.985 4.58301C222.016 4.58301 222.928 4.79846 223.741 5.22936C224.554 5.66027 225.168 6.26745 225.624 7.07049C226.061 6.32621 226.675 5.71903 227.488 5.26854C228.301 4.81805 229.193 4.58301 230.144 4.58301C231.77 4.58301 233.059 5.07267 234.05 6.052H234.09Z" fill="white"/>
<path d="M250.901 12.261H241.266C241.345 13.2011 241.682 13.9454 242.257 14.4742C242.832 15.0031 243.566 15.2773 244.418 15.2773C245.647 15.2773 246.539 14.7485 247.055 13.7104H250.643C250.266 14.9639 249.533 16.002 248.462 16.805C247.392 17.6081 246.064 18.0194 244.497 18.0194C243.229 18.0194 242.099 17.7452 241.088 17.1772C240.077 16.6288 239.303 15.8257 238.728 14.8072C238.173 13.7887 237.876 12.6135 237.876 11.2816C237.876 9.94977 238.154 8.75499 238.709 7.73649C239.264 6.71799 240.037 5.93453 241.048 5.38611C242.039 4.83769 243.189 4.56348 244.497 4.56348C245.806 4.56348 246.876 4.83769 247.868 5.36652C248.859 5.89536 249.632 6.65923 250.167 7.63856C250.722 8.61788 250.98 9.73431 250.98 11.0074C250.98 11.4775 250.94 11.9084 250.881 12.2806L250.901 12.261ZM247.55 10.0673C247.55 9.22507 247.233 8.53954 246.619 8.03029C246.024 7.52104 245.271 7.26641 244.398 7.26641C243.566 7.26641 242.872 7.52104 242.317 8.0107C241.762 8.50037 241.405 9.18589 241.286 10.0673H247.55Z" fill="white"/>
</g>
<defs>
<clipPath id="clip0_188_1761">
<rect width="251" height="18" fill="white"/>
</clipPath>
</defs>
</svg>
