<svg width="198" height="55" viewBox="0 0 198 55" fill="none" xmlns="http://www.w3.org/2000/svg">
<g clip-path="url(#clip0_102_673)">
<path d="M3.22939 43.4199C3.75201 43.1141 4.35825 42.9664 5.0272 42.9664C5.74842 42.9664 6.39647 43.1352 6.97135 43.4832C7.54623 43.8312 7.99569 44.3164 8.33016 44.9386C8.66464 45.5609 8.83188 46.2886 8.83188 47.1112C8.83188 47.9338 8.66464 48.6615 8.33016 49.2943C7.99569 49.9271 7.54623 50.4333 6.9609 50.7814C6.37556 51.14 5.73797 51.3087 5.01675 51.3087C4.29553 51.3087 3.72065 51.1611 3.19803 50.8552C2.67541 50.5494 2.27822 50.1591 2.01691 49.6845V51.1716H0.689453V40.2454H2.01691V44.5906C2.28867 44.1054 2.68586 43.7152 3.21894 43.4094L3.22939 43.4199ZM7.10723 45.5187C6.86683 45.0652 6.53235 44.7171 6.11425 44.4851C5.69616 44.2531 5.2467 44.1265 4.74499 44.1265C4.24327 44.1265 3.80427 44.2425 3.39663 44.4851C2.97853 44.7277 2.65451 45.0757 2.40365 45.5292C2.15279 45.9827 2.02736 46.5206 2.02736 47.1112C2.02736 47.7018 2.15279 48.2608 2.40365 48.7143C2.65451 49.1678 2.98898 49.5263 3.39663 49.7584C3.80427 49.9904 4.26418 50.1169 4.74499 50.1169C5.2258 50.1169 5.69616 50.0009 6.11425 49.7584C6.53235 49.5158 6.85638 49.1678 7.10723 48.7143C7.34764 48.2608 7.47307 47.7229 7.47307 47.1006C7.47307 46.4784 7.34764 45.9616 7.10723 45.5081V45.5187Z" fill="white"/>
<path d="M17.4862 43.093L12.6572 54.9895H11.2775L12.8558 51.0873L9.62598 43.0825H11.0998L13.6188 49.6424L16.1065 43.0825H17.4862V43.093Z" fill="white"/>
<path d="M24.218 50.9185C23.6431 50.6759 23.1936 50.3174 22.8696 49.8533C22.5351 49.3893 22.3679 48.8409 22.3574 48.2186H24.5524C24.5838 48.6405 24.7301 48.978 25.0019 49.2205C25.2736 49.4631 25.6395 49.5897 26.1098 49.5897C26.5802 49.5897 26.9669 49.4736 27.2387 49.2416C27.5105 49.0096 27.6463 48.7037 27.6463 48.3346C27.6463 48.0288 27.5523 47.7757 27.3641 47.5858C27.176 47.3854 26.946 47.2378 26.6638 47.1218C26.3816 47.0058 26.0053 46.8792 25.5141 46.7421C24.8555 46.5417 24.312 46.3519 23.8939 46.162C23.4758 45.9722 23.1204 45.6769 22.8278 45.2867C22.5247 44.8965 22.3783 44.3797 22.3783 43.7258C22.3783 43.1141 22.5247 42.5868 22.8278 42.1333C23.1309 41.6798 23.5594 41.3317 24.103 41.0892C24.6465 40.8466 25.2736 40.7306 25.974 40.7306C27.0297 40.7306 27.8867 40.9943 28.5452 41.511C29.2038 42.0278 29.5696 42.745 29.6323 43.6731H27.3746C27.3537 43.3145 27.2073 43.0297 26.9251 42.7977C26.6429 42.5657 26.2771 42.4497 25.8172 42.4497C25.42 42.4497 25.096 42.5551 24.8555 42.7555C24.6151 42.9665 24.5002 43.2618 24.5002 43.652C24.5002 43.9262 24.5942 44.1582 24.7719 44.3375C24.9496 44.5168 25.1796 44.6644 25.4409 44.7804C25.7126 44.8965 26.0889 45.023 26.5697 45.1707C27.2282 45.3711 27.7718 45.5609 28.1899 45.7613C28.608 45.9617 28.9738 46.257 29.2769 46.6472C29.58 47.0374 29.7264 47.5542 29.7264 48.1975C29.7264 48.7459 29.58 49.2627 29.2978 49.7373C29.0156 50.2119 28.5975 50.5916 28.054 50.8658C27.5105 51.1505 26.8624 51.2876 26.1098 51.2876C25.3991 51.2876 24.7615 51.1611 24.1866 50.9185H24.218Z" fill="#EA0029"/>
<path d="M42.7602 43.0086L40.3876 51.1927H38.1821L36.7083 45.4765L35.2345 51.1927H33.0082L30.625 43.0086H32.705L34.137 49.2416L35.684 43.0086H37.8476L39.3737 49.2205L40.8056 43.0086H42.7707H42.7602Z" fill="#EA0029"/>
<path d="M44.0146 41.6798C43.7742 41.4478 43.6592 41.163 43.6592 40.815C43.6592 40.4669 43.7742 40.1822 44.0146 39.9501C44.255 39.7181 44.5581 39.6021 44.9135 39.6021C45.2689 39.6021 45.572 39.7181 45.8124 39.9501C46.0528 40.1822 46.1678 40.4669 46.1678 40.815C46.1678 41.163 46.0528 41.4478 45.8124 41.6798C45.572 41.9118 45.2689 42.0278 44.9135 42.0278C44.5581 42.0278 44.255 41.9118 44.0146 41.6798ZM45.9274 43.0086V51.1927H43.8787V43.0086H45.9274Z" fill="#EA0029"/>
<path d="M49.2619 50.9607C48.7392 50.7181 48.3211 50.3912 48.0076 49.9799C47.7045 49.5685 47.5268 49.1045 47.5059 48.6088H49.565C49.6068 48.9252 49.7531 49.1889 50.0249 49.3893C50.2967 49.5896 50.6311 49.6951 51.0283 49.6951C51.4255 49.6951 51.7286 49.6213 51.9481 49.4631C52.1676 49.3049 52.2826 49.1045 52.2826 48.8619C52.2826 48.5983 52.1467 48.3979 51.875 48.2608C51.6032 48.1237 51.1747 47.9866 50.5998 47.8284C49.9935 47.6807 49.5023 47.5331 49.1155 47.3749C48.7288 47.2167 48.3943 46.9741 48.1226 46.6472C47.8508 46.3202 47.7045 45.8878 47.7045 45.3289C47.7045 44.8754 47.8299 44.464 48.0912 44.0844C48.3525 43.7047 48.7183 43.4199 49.1991 43.1985C49.68 42.977 50.2548 42.8715 50.9029 42.8715C51.8645 42.8715 52.638 43.1141 53.2129 43.5992C53.7878 44.0844 54.1013 44.7382 54.164 45.5714H52.199C52.1676 45.2445 52.0318 44.9914 51.8018 44.8015C51.5614 44.6117 51.2374 44.5168 50.8402 44.5168C50.4639 44.5168 50.1817 44.5906 49.9831 44.7277C49.7845 44.8648 49.68 45.0546 49.68 45.3078C49.68 45.582 49.8158 45.7929 50.0876 45.93C50.3594 46.0777 50.7879 46.2148 51.3628 46.3624C51.9481 46.5101 52.4289 46.6577 52.8157 46.8159C53.192 46.9741 53.5264 47.2167 53.8087 47.5436C54.0909 47.8706 54.2268 48.3135 54.2372 48.8514C54.2372 49.326 54.1118 49.7478 53.8505 50.117C53.5892 50.4861 53.2233 50.7814 52.7425 50.9923C52.2617 51.2033 51.6973 51.3087 51.0492 51.3087C50.4012 51.3087 49.7949 51.1927 49.2619 50.9501V50.9607Z" fill="#EA0029"/>
<path d="M57.2374 50.9607C56.7148 50.7181 56.2967 50.3912 55.9832 49.9799C55.68 49.5685 55.5024 49.1045 55.4814 48.6088H57.5406C57.5824 48.9252 57.7287 49.1889 58.0005 49.3893C58.2722 49.5896 58.6067 49.6951 59.0039 49.6951C59.4011 49.6951 59.7042 49.6213 59.9237 49.4631C60.1432 49.3049 60.2582 49.1045 60.2582 48.8619C60.2582 48.5983 60.1223 48.3979 59.8505 48.2608C59.5788 48.1237 59.1502 47.9866 58.5754 47.8284C57.9691 47.6807 57.4779 47.5331 57.0911 47.3749C56.7044 47.2167 56.3699 46.9741 56.0981 46.6472C55.8264 46.3202 55.68 45.8878 55.68 45.3289C55.68 44.8754 55.8055 44.464 56.0668 44.0844C56.3281 43.7047 56.6939 43.4199 57.1747 43.1985C57.6555 42.977 58.2304 42.8715 58.8785 42.8715C59.8401 42.8715 60.6136 43.1141 61.1885 43.5992C61.7633 44.0844 62.0769 44.7382 62.1396 45.5714H60.1746C60.1432 45.2445 60.0073 44.9914 59.7774 44.8015C59.537 44.6117 59.213 44.5168 58.8158 44.5168C58.4395 44.5168 58.1573 44.5906 57.9587 44.7277C57.7601 44.8648 57.6555 45.0546 57.6555 45.3078C57.6555 45.582 57.7914 45.7929 58.0632 45.93C58.335 46.0777 58.7635 46.2148 59.3384 46.3624C59.9237 46.5101 60.4045 46.6577 60.7913 46.8159C61.1676 46.9741 61.502 47.2167 61.7842 47.5436C62.0665 47.8706 62.2023 48.3135 62.2128 48.8514C62.2128 49.326 62.0874 49.7478 61.8261 50.117C61.5647 50.4861 61.1989 50.7814 60.7181 50.9923C60.2373 51.2033 59.6729 51.3087 59.0248 51.3087C58.3768 51.3087 57.7705 51.1927 57.2374 50.9501V50.9607Z" fill="#EA0029"/>
<path d="M68.9748 50.9185C68.3999 50.6759 67.9504 50.3174 67.6264 49.8533C67.2919 49.3893 67.1247 48.8409 67.1143 48.2186H69.3093C69.3406 48.6405 69.487 48.978 69.7587 49.2205C70.0305 49.4631 70.3963 49.5897 70.8667 49.5897C71.337 49.5897 71.7238 49.4736 71.9955 49.2416C72.2673 49.0096 72.4032 48.7037 72.4032 48.3346C72.4032 48.0288 72.3091 47.7757 72.121 47.5858C71.9328 47.3854 71.7029 47.2378 71.4207 47.1218C71.1384 47.0058 70.7622 46.8792 70.2709 46.7421C69.6124 46.5417 69.0689 46.3519 68.6508 46.162C68.2327 45.9722 67.8773 45.6769 67.5846 45.2867C67.2815 44.8965 67.1352 44.3797 67.1352 43.7258C67.1352 43.1141 67.2815 42.5868 67.5846 42.1333C67.8877 41.6798 68.3163 41.3317 68.8598 41.0892C69.4033 40.8466 70.0305 40.7306 70.7308 40.7306C71.7865 40.7306 72.6436 40.9943 73.3021 41.511C73.9606 42.0278 74.3264 42.745 74.3891 43.6731H72.1314C72.1105 43.3145 71.9642 43.0297 71.682 42.7977C71.3997 42.5657 71.0339 42.4497 70.574 42.4497C70.1768 42.4497 69.8528 42.5551 69.6124 42.7555C69.372 42.9665 69.257 43.2618 69.257 43.652C69.257 43.9262 69.3511 44.1582 69.5288 44.3375C69.7065 44.5168 69.9364 44.6644 70.1977 44.7804C70.4695 44.8965 70.8458 45.023 71.3266 45.1707C71.9851 45.3711 72.5286 45.5609 72.9467 45.7613C73.3648 45.9617 73.7306 46.257 74.0338 46.6472C74.3369 47.0374 74.4832 47.5542 74.4832 48.1975C74.4832 48.7459 74.3369 49.2627 74.0547 49.7373C73.7724 50.2119 73.3544 50.5916 72.8108 50.8658C72.2673 51.1505 71.6193 51.2876 70.8667 51.2876C70.1559 51.2876 69.5183 51.1611 68.9434 50.9185H68.9748Z" fill="#EA0029"/>
<path d="M77.7764 50.7919C77.1493 50.4439 76.658 49.9482 76.3026 49.3049C75.9472 48.6615 75.7695 47.9233 75.7695 47.0901C75.7695 46.2569 75.9577 45.5187 76.3235 44.8753C76.6893 44.232 77.1911 43.7363 77.8182 43.3883C78.4558 43.0403 79.1561 42.861 79.94 42.861C80.724 42.861 81.4243 43.0403 82.0619 43.3883C82.6995 43.7363 83.1907 44.232 83.5566 44.8753C83.9224 45.5187 84.1106 46.2569 84.1106 47.0901C84.1106 47.9233 83.9224 48.6615 83.5461 49.3049C83.1698 49.9482 82.6681 50.4439 82.0201 50.7919C81.3825 51.14 80.6717 51.3193 79.8773 51.3193C79.0829 51.3193 78.3931 51.14 77.7659 50.7919H77.7764ZM80.933 49.2416C81.257 49.0623 81.5184 48.7881 81.717 48.419C81.9156 48.0498 82.0096 47.6069 82.0096 47.0901C82.0096 46.3097 81.811 45.7191 81.4034 45.2972C80.9957 44.8753 80.5045 44.675 79.9191 44.675C79.3338 44.675 78.8425 44.8859 78.4454 45.2972C78.0482 45.7191 77.8496 46.3097 77.8496 47.0901C77.8496 47.8706 78.0377 48.4612 78.4244 48.883C78.8112 49.3049 79.292 49.5053 79.8773 49.5053C80.2432 49.5053 80.5985 49.4103 80.9226 49.231L80.933 49.2416Z" fill="#EA0029"/>
<path d="M87.6746 40.256V51.1822H85.626V40.256H87.6746Z" fill="#EA0029"/>
<path d="M89.6495 44.8648C89.9735 44.2215 90.4229 43.7363 90.9769 43.3883C91.5414 43.0403 92.1685 42.8715 92.8583 42.8715C93.4646 42.8715 93.9872 42.9981 94.4471 43.2406C94.8966 43.4832 95.2624 43.7996 95.5342 44.1687V42.9981H97.5933V51.1822H95.5342V49.9904C95.2729 50.3701 94.907 50.697 94.4471 50.9396C93.9872 51.1927 93.4437 51.3193 92.8479 51.3193C92.1685 51.3193 91.5414 51.14 90.9769 50.7919C90.4125 50.4334 89.9735 49.9377 89.6495 49.2943C89.3254 48.651 89.1582 47.9127 89.1582 47.069C89.1582 46.2253 89.3254 45.5081 89.6495 44.8648ZM95.252 45.8034C95.0534 45.4449 94.7921 45.1707 94.4576 44.9808C94.1231 44.791 93.7677 44.6961 93.3914 44.6961C93.0151 44.6961 92.6598 44.791 92.3357 44.9808C92.0117 45.1707 91.7504 45.4449 91.5518 45.8034C91.3532 46.162 91.2487 46.5839 91.2487 47.0796C91.2487 47.5753 91.3532 48.0077 91.5518 48.3768C91.7504 48.7459 92.0117 49.0307 92.3462 49.2205C92.6702 49.4209 93.0256 49.5158 93.3914 49.5158C93.7573 49.5158 94.1336 49.4209 94.4576 49.2311C94.7921 49.0412 95.0534 48.767 95.252 48.4084C95.4505 48.0499 95.5446 47.6174 95.5446 47.1218C95.5446 46.6261 95.4505 46.1937 95.252 45.8245V45.8034Z" fill="#EA0029"/>
<path d="M102.695 43.2618C103.123 43.0192 103.604 42.8926 104.148 42.8926V45.0652H103.604C102.956 45.0652 102.475 45.2129 102.151 45.5187C101.827 45.8246 101.66 46.3519 101.66 47.1112V51.1822H99.6113V42.9981H101.66V44.2637C101.921 43.8313 102.266 43.4938 102.695 43.2407V43.2618Z" fill="#EA0029"/>
<path d="M0 0.46405H11.1841C16.797 0.46405 21.0512 4.09205 21.0512 9.2071C21.0512 14.3222 16.797 17.9501 11.1841 17.9501H3.9092V27.2838H0V0.46405ZM10.6406 14.2905C14.4766 14.2905 17.0583 12.3816 17.0583 9.21764C17.0583 6.0537 14.4661 4.14478 10.6406 4.14478H3.9092V14.2905H10.6406Z" fill="white"/>
<path d="M48.4055 0.46405V27.2838H44.4962V15.4506H29.9883V27.2838H26.0791V0.46405H29.9883V11.791H44.4962V0.46405H48.4055Z" fill="white"/>
<path d="M85.2607 0.46405H89.1699L104.451 20.8082V0.46405H108.361V27.2838H104.451L89.1699 6.95015V27.2838H85.2607V0.46405Z" fill="white"/>
<path d="M122.304 4.13423H113.597V0.46405H134.951V4.13423H126.213V27.2838H122.304V4.13423Z" fill="white"/>
<path d="M137.679 13.8581C137.679 6.3279 144.023 0 151.497 0C158.97 0 165.231 6.3279 165.231 13.8581C165.231 21.3883 158.96 27.7584 151.497 27.7584C144.034 27.7584 137.679 21.3988 137.679 13.8581ZM161.238 13.8581C161.238 8.31064 156.786 3.628 151.486 3.628C146.187 3.628 141.703 8.31064 141.703 13.8581C141.703 19.4056 146.187 24.1304 151.486 24.1304C156.786 24.1304 161.238 19.4477 161.238 13.8581Z" fill="white"/>
<path d="M171.534 0.46405H175.443L184.767 17.9923L194.09 0.46405H198V27.2838H194.09V8.19463L184.767 25.7229L175.443 8.19463V27.2838H171.534V0.46405Z" fill="white"/>
<path d="M68.8712 0.46405H64.5439L53.1299 27.2838H57.4572L61.2932 18.2665H61.2828L62.3071 15.8725L62.328 15.8198L66.7076 5.54746L72.1219 18.2665L73.6271 21.8207L75.9475 27.2838H80.2852L68.8712 0.46405Z" fill="white"/>
</g>
<defs>
<clipPath id="clip0_102_673">
<rect width="198" height="55" fill="white"/>
</clipPath>
</defs>
</svg>
